<svg xmlns="http://www.w3.org/2000/svg" viewBox="0 0 230.796 37.477">
  <defs>
    <style>
      .cls-1 {
        fill: #fff;
      }
    </style>
  </defs>
  <g id="logo_text_white" transform="translate(-434 -2651.184)">
    <path id="s" class="cls-1" d="M22.727,15.492a11.932,11.932,0,0,0-3.2-1.9,28.077,28.077,0,0,0-4.082-1.345c-1.345-.371-2.319-.649-3.108-.881a9.255,9.255,0,0,1-1.716-.7,1.826,1.826,0,0,1-.6-.51,1.848,1.848,0,0,1-.139-.788V9.276a1.149,1.149,0,0,1,.557-1.02,3.766,3.766,0,0,1,2.18-.51,9.026,9.026,0,0,1,3.386.7,20.613,20.613,0,0,1,3.664,1.994l.835.557,4.453-6.447-.742-.6A18.752,18.752,0,0,0,18.97,1.02,18.018,18.018,0,0,0,12.755,0,13.586,13.586,0,0,0,8.3.7,10.765,10.765,0,0,0,4.731,2.69,9.093,9.093,0,0,0,2.365,5.8a9.516,9.516,0,0,0-.835,4.035v.093a9.476,9.476,0,0,0,.788,4.035A8.269,8.269,0,0,0,4.545,16.79,14.18,14.18,0,0,0,7.885,18.6a39.723,39.723,0,0,0,4.128,1.252c1.206.278,2.18.6,2.876.835a6.306,6.306,0,0,1,1.577.742,1.666,1.666,0,0,1,.51.464,1.481,1.481,0,0,1,.139.649v.093a1.234,1.234,0,0,1-.649,1.16,4.732,4.732,0,0,1-2.551.557,9.486,9.486,0,0,1-4.174-.881,18.779,18.779,0,0,1-3.9-2.458l-.788-.649L0,26.484l.742.649a18.426,18.426,0,0,0,6.169,3.711,20.576,20.576,0,0,0,6.864,1.206,16.241,16.241,0,0,0,4.638-.649,11.77,11.77,0,0,0,3.711-1.948,8.726,8.726,0,0,0,2.458-3.2,9.757,9.757,0,0,0,.881-4.267v-.093a9.289,9.289,0,0,0-.7-3.711A7.683,7.683,0,0,0,22.727,15.492Z" transform="translate(434 2651.184)"/>
    <path id="h" class="cls-1" d="M75.677,9.137a6.616,6.616,0,0,0-2.226.325,6.42,6.42,0,0,0-1.809.835l-.974.7V0H63.2V31.4h7.514V19.341a3.484,3.484,0,0,1,.7-2.412,2.486,2.486,0,0,1,1.948-.742,2.224,2.224,0,0,1,1.855.742,3.619,3.619,0,0,1,.7,2.458V31.447h7.514V17.486a8.954,8.954,0,0,0-1.994-6.076A7.575,7.575,0,0,0,75.677,9.137Z" transform="translate(400.113 2651.184)"/>
    <g id="i" transform="translate(486.922 2651.369)">
      <rect id="長方形_23" data-name="長方形 23" class="cls-1" width="7.514" height="21.846" transform="translate(0 9.323)"/>
      <path id="パス_12" data-name="パス 12" class="cls-1" d="M117.918,7.636A3.618,3.618,0,1,0,114.3,4.018,3.622,3.622,0,0,0,117.918,7.636Z" transform="translate(-114.207 -0.4)"/>
    </g>
    <path id="n" class="cls-1" d="M150.223,19.7a6.616,6.616,0,0,0-2.226.325,6.42,6.42,0,0,0-1.809.835l-.974.7V20.071H137.7V41.917h7.56V29.858a3.485,3.485,0,0,1,.7-2.412A2.486,2.486,0,0,1,147.9,26.7a2.224,2.224,0,0,1,1.855.742,3.627,3.627,0,0,1,.649,2.458V41.963h7.514V28.049a8.954,8.954,0,0,0-1.994-6.076A7.333,7.333,0,0,0,150.223,19.7Z" transform="translate(360.168 2640.621)"/>
    <g id="j" transform="translate(520.502 2651.369)">
      <path id="パス_13" data-name="パス 13" class="cls-1" d="M189.747,20.5V40.676c0,.788-.186,1.067-.278,1.113a1.093,1.093,0,0,1-.835.278c-.278,0-.649-.046-1.067-.093l-1.067-.186V48.1l.742.139c.417.093.835.139,1.206.186a13.508,13.508,0,0,0,1.438.046,7.518,7.518,0,0,0,5.427-1.809,7.369,7.369,0,0,0,1.9-5.519V20.5Z" transform="translate(-186.5 -11.177)"/>
      <path id="パス_14" data-name="パス 14" class="cls-1" d="M197.518,7.636A3.618,3.618,0,1,0,193.9,4.018,3.622,3.622,0,0,0,197.518,7.636Z" transform="translate(-190.468 -0.4)"/>
    </g>
    <path id="u" class="cls-1" d="M229.709,32.559a3.485,3.485,0,0,1-.7,2.412,2.486,2.486,0,0,1-1.948.742,2.347,2.347,0,0,1-1.855-.7,3.619,3.619,0,0,1-.7-2.458V20.5H217V34.368a8.954,8.954,0,0,0,1.994,6.076,7.243,7.243,0,0,0,5.7,2.273,6.991,6.991,0,0,0,2.226-.325,6.419,6.419,0,0,0,1.809-.835l.974-.7v1.484h7.514V20.5h-7.514Z" transform="translate(317.648 2640.192)"/>
    <path id="k" class="cls-1" d="M281.748,9.508l-5.38,5.89V0H268.9V31.4h7.468V24.722l.974-.974,4.87,7.653h8.673l-8.4-12.987,8.581-8.905Z" transform="translate(289.821 2651.184)"/>
    <path id="u-2" data-name="u" class="cls-1" d="M333.862,32.559a3.484,3.484,0,0,1-.7,2.412,2.486,2.486,0,0,1-1.948.742,2.346,2.346,0,0,1-1.855-.7,3.627,3.627,0,0,1-.649-2.458V20.5H321.2V34.368a8.954,8.954,0,0,0,1.994,6.076,7.243,7.243,0,0,0,5.7,2.273,6.99,6.99,0,0,0,2.226-.325,6.42,6.42,0,0,0,1.809-.835l.974-.7v1.484h7.514V20.5h-7.514V32.559Z" transform="translate(261.778 2640.192)"/>
    <path id="_." data-name="." class="cls-1" d="M378.913,49.6a4.314,4.314,0,1,0,4.314,4.314A4.335,4.335,0,0,0,378.913,49.6Z" transform="translate(233.146 2624.589)"/>
    <path id="L" class="cls-1" d="M408.56,2.4H401V32.687h20.64v-7H408.56Z" transform="translate(218.991 2649.897)"/>
    <path id="T" class="cls-1" d="M446.9,2.4V9.543h7.978V32.687h7.56V9.543h7.978V2.4Z" transform="translate(194.38 2649.897)"/>
  </g>
</svg>
