<svg xmlns="http://www.w3.org/2000/svg" viewBox="0 0 146.899 23.883">
  <defs>
    <style>
      .cls-1 {
        fill: #333;
      }
    </style>
  </defs>
  <g id="logo_text_black" transform="translate(-536.553 -43)">
    <path id="s_1_" class="cls-1" d="M14.466,228.76a7.594,7.594,0,0,0-2.037-1.21,17.875,17.875,0,0,0-2.6-.856c-.856-.236-1.476-.413-1.978-.561a5.891,5.891,0,0,1-1.092-.443,1.161,1.161,0,0,1-.384-.325,1.176,1.176,0,0,1-.089-.5V224.8a.731.731,0,0,1,.354-.649,2.4,2.4,0,0,1,1.388-.325,5.745,5.745,0,0,1,2.155.443,13.12,13.12,0,0,1,2.332,1.269l.531.354,2.834-4.1-.472-.384a11.936,11.936,0,0,0-3.336-1.86,11.468,11.468,0,0,0-3.956-.649,8.647,8.647,0,0,0-2.834.443,6.851,6.851,0,0,0-2.273,1.269,5.788,5.788,0,0,0-1.506,1.978,6.057,6.057,0,0,0-.531,2.568v.059a6.032,6.032,0,0,0,.5,2.568,5.263,5.263,0,0,0,1.417,1.8,9.025,9.025,0,0,0,2.126,1.151,25.288,25.288,0,0,0,2.627.8c.768.177,1.388.384,1.83.531a4.014,4.014,0,0,1,1,.472,1.06,1.06,0,0,1,.325.3.943.943,0,0,1,.089.413v.059a.785.785,0,0,1-.413.738,3.012,3.012,0,0,1-1.624.354,6.038,6.038,0,0,1-2.657-.561,11.954,11.954,0,0,1-2.48-1.565l-.5-.413L0,235.786l.472.413A11.727,11.727,0,0,0,4.4,238.561a13.1,13.1,0,0,0,4.369.768,10.337,10.337,0,0,0,2.952-.413,7.493,7.493,0,0,0,2.362-1.24,5.554,5.554,0,0,0,1.565-2.037,6.21,6.21,0,0,0,.561-2.716v-.059a5.913,5.913,0,0,0-.443-2.362A5.28,5.28,0,0,0,14.466,228.76Z" transform="translate(536.553 -175.9)"/>
    <path id="h_1_" class="cls-1" d="M71.141,224.816a4.211,4.211,0,0,0-1.417.207,4.087,4.087,0,0,0-1.151.531l-.62.443v-7H63.2v19.986h4.782v-7.676a2.218,2.218,0,0,1,.443-1.535,1.582,1.582,0,0,1,1.24-.472,1.416,1.416,0,0,1,1.181.472,2.3,2.3,0,0,1,.443,1.565v7.676h4.782v-8.827a5.7,5.7,0,0,0-1.269-3.867A4.562,4.562,0,0,0,71.141,224.816Z" transform="translate(492.011 -175.971)"/>
    <g id="i_1_" transform="translate(570.237 43.148)">
      <rect id="長方形_22" data-name="長方形 22" class="cls-1" width="4.782" height="13.905" transform="translate(0 5.934)"/>
      <path id="パス_9" data-name="パス 9" class="cls-1" d="M116.6,224.005a2.3,2.3,0,1,0-2.3-2.3A2.306,2.306,0,0,0,116.6,224.005Z" transform="translate(-114.241 -219.4)"/>
    </g>
    <path id="n_1_" class="cls-1" d="M145.671,238.7a4.21,4.21,0,0,0-1.417.207,4.084,4.084,0,0,0-1.151.531l-.62.443v-.945H137.7v13.9h4.812v-7.676a2.218,2.218,0,0,1,.443-1.535,1.582,1.582,0,0,1,1.24-.472,1.416,1.416,0,0,1,1.181.472,2.308,2.308,0,0,1,.413,1.565v7.676h4.782v-8.827a5.7,5.7,0,0,0-1.269-3.867A4.493,4.493,0,0,0,145.671,238.7Z" transform="translate(439.504 -189.855)"/>
    <g id="j_1_" transform="translate(591.611 43.148)">
      <path id="パス_10" data-name="パス 10" class="cls-1" d="M188.567,239.5v12.842c0,.5-.118.679-.177.709a.7.7,0,0,1-.531.177c-.177,0-.413-.03-.679-.059l-.679-.118v4.015l.472.089c.266.059.531.089.768.118a8.592,8.592,0,0,0,.915.03,4.785,4.785,0,0,0,3.454-1.151,4.69,4.69,0,0,0,1.21-3.513V239.5Z" transform="translate(-186.5 -233.566)"/>
      <path id="パス_11" data-name="パス 11" class="cls-1" d="M196.2,224.005a2.3,2.3,0,1,0-2.3-2.3A2.306,2.306,0,0,0,196.2,224.005Z" transform="translate(-191.715 -219.4)"/>
    </g>
    <path id="u_3_" class="cls-1" d="M225.089,247.176a2.218,2.218,0,0,1-.443,1.535,1.582,1.582,0,0,1-1.24.472,1.494,1.494,0,0,1-1.181-.443,2.3,2.3,0,0,1-.443-1.565V239.5H217v8.827a5.7,5.7,0,0,0,1.269,3.867,4.61,4.61,0,0,0,3.631,1.447,4.45,4.45,0,0,0,1.417-.207,4.085,4.085,0,0,0,1.151-.531l.62-.443v.945h4.782V239.5h-4.782Z" transform="translate(383.615 -190.419)"/>
    <path id="k_1_" class="cls-1" d="M277.077,225.052l-3.424,3.72V219H268.9v19.956h4.753v-4.222l.62-.62,3.1,4.841h5.521l-5.343-8.236,5.461-5.668Z" transform="translate(347.036 -175.971)"/>
    <path id="u_2_" class="cls-1" d="M329.259,247.176a2.218,2.218,0,0,1-.443,1.535,1.582,1.582,0,0,1-1.24.472,1.494,1.494,0,0,1-1.181-.443,2.308,2.308,0,0,1-.413-1.565V239.5H321.2v8.827a5.7,5.7,0,0,0,1.269,3.867,4.61,4.61,0,0,0,3.631,1.447,4.45,4.45,0,0,0,1.417-.207,4.085,4.085,0,0,0,1.151-.531l.62-.443v.945h4.783V239.5h-4.783v7.676Z" transform="translate(310.176 -190.419)"/>
    <path id="_x2E__1_" class="cls-1" d="M377.346,268.5a2.745,2.745,0,1,0,2.745,2.746A2.759,2.759,0,0,0,377.346,268.5Z" transform="translate(272.541 -210.857)"/>
    <path id="L_1_" class="cls-1" d="M405.812,221.4H401v19.248h13.137V236.19h-8.325Z" transform="translate(253.934 -177.662)"/>
    <path id="T_1_" class="cls-1" d="M446.9,221.4v4.517h5.078v14.731h4.812V225.917h5.078V221.4Z" transform="translate(221.585 -177.662)"/>
  </g>
</svg>
