<svg xmlns="http://www.w3.org/2000/svg" xmlns:xlink="http://www.w3.org/1999/xlink" viewBox="0 0 600 600" style="">
	<defs>
		<style>
			.cls-1{fill:#fff;}
			.cls-2{fill:#c54145;}
			.cls-3{fill:#cb4969;}
			.cls-4{fill:#d36d70;}
			.cls-5{fill:#db9853;}
			.cls-6{fill:#b4c64f;}
			.cls-7{fill:#80b884;}
			.cls-8{fill:#7bb9bf;}
			.cls-9{fill:#4984a6;}
			.cls-10{fill:#3d5482;}
			.cls-11{fill:#654a87;}
			.cls-12{fill:#7d3f85;}
			.cls-13{fill:#9d3f63;}
			.cls-14{fill:#bf4865;}
			.cls-15{fill:#d49352;}
			.cls-16{fill:#7db181;}
			.cls-17{fill:#48809e;}
			.cls-18{fill:#604781;}
			.cls-19{fill:#ca6b6d;}
			.cls-20{fill:#77b3b7;}
			.cls-21{fill:#3c517f;}
			.cls-22{fill:#773c7f;}
			.cls-23{fill:#bc4043;}
			.cls-24{fill:none;stroke-miterlimit:10;stroke-width:4px;stroke:url(#名称未設定グラデーション_71);}
		</style>
		<linearGradient id="名称未設定グラデーション_71" x1="47.09" y1="446.05" x2="552.9" y2="154.02" gradientUnits="userSpaceOnUse">
			<stop offset="0" stop-color="#c54145"></stop>
			<stop offset="0.13" stop-color="#d36d70"></stop>
			<stop offset="0.25" stop-color="#db9853"></stop>
			<stop offset="0.37" stop-color="#b4c64f"></stop>
			<stop offset="0.5" stop-color="#80b884"></stop>
			<stop offset="0.62" stop-color="#7bb9bf"></stop>
			<stop offset="0.76" stop-color="#4984a6"></stop>
			<stop offset="0.89" stop-color="#654a87"></stop>
			<stop offset="1" stop-color="#7d3f85"></stop>
		</linearGradient>
	</defs>
	<title>line</title>
	<g id="logo">
		<path id="base" class="cls-1 hMbgTzek_0" transform="translate(-124.27 300) rotate(-45)" d="M0,300A300,300 0,1,1 600,300A300,300 0,1,1 0,300"></path>
		<g id="name">
			<path id="s" class="cls-2 hMbgTzek_1" d="M100.47,303a26.39,26.39,0,0,0-6.88-4.13,67.7,67.7,0,0,0-8.8-2.92c-2.92-.78-5-1.38-6.65-1.88a18,18,0,0,1-3.72-1.49,3.31,3.31,0,0,1-1.29-1.15,3.58,3.58,0,0,1-.34-1.66v-.18A2.57,2.57,0,0,1,74,287.4a7.9,7.9,0,0,1,4.73-1.12A19,19,0,0,1,86,287.79a43.69,43.69,0,0,1,7.88,4.32l1.78,1.22,9.58-13.88-1.59-1.26a39.11,39.11,0,0,0-11.28-6.29,40.15,40.15,0,0,0-13.45-2.19,30.13,30.13,0,0,0-9.58,1.46,22.36,22.36,0,0,0-7.67,4.29,19.59,19.59,0,0,0-5,6.7,20.3,20.3,0,0,0-1.82,8.69V291a20.38,20.38,0,0,0,1.7,8.75,16.48,16.48,0,0,0,4.82,6.05,26.63,26.63,0,0,0,7.16,3.88,81.66,81.66,0,0,0,8.88,2.67c2.58.65,4.68,1.26,6.23,1.83A18.25,18.25,0,0,1,87,315.79a3.06,3.06,0,0,1,1.11,1,3.27,3.27,0,0,1,.28,1.44v.18A2.8,2.8,0,0,1,87,321a10.07,10.07,0,0,1-5.5,1.22,21.61,21.61,0,0,1-9-1.88,38.66,38.66,0,0,1-8.38-5.28l-1.66-1.35-10.9,13.05,1.55,1.4a39.6,39.6,0,0,0,13.32,8,44.14,44.14,0,0,0,14.85,2.59,34.2,34.2,0,0,0,10-1.39,23.8,23.8,0,0,0,8-4.17,19.36,19.36,0,0,0,5.34-6.89,21.66,21.66,0,0,0,1.9-9.23v-.18a19.59,19.59,0,0,0-1.5-8A16.61,16.61,0,0,0,100.47,303Z"></path>
			<path id="h" class="cls-3 hMbgTzek_2" d="M141.62,289.37a15.66,15.66,0,0,0-8.63,2.42,18.64,18.64,0,0,0-2.08,1.54V269.65H114.75v67.67h16.16v-26c0-2.38.52-4.14,1.53-5.23a5.38,5.38,0,0,1,4.18-1.59,5,5,0,0,1,4,1.55c1,1.09,1.45,2.87,1.45,5.27v26h16.16V307.38c0-5.48-1.45-9.88-4.33-13.08S146.85,289.37,141.62,289.37Z"></path>
			<g id="i">
				<path class="cls-4 hMbgTzek_3" width="16.17" height="47.14" d="M165.56 290.18 L181.73000000000002 290.18 L181.73000000000002 337.32 L165.56 337.32 Z"></path>
				<path class="cls-4 hMbgTzek_4" d="M173.65,285.68a7.85,7.85,0,1,0-7.85-7.84A7.85,7.85,0,0,0,173.65,285.68Z"></path>
			</g><path id="n" class="cls-5 hMbgTzek_5" d="M216.23,289.37a15.66,15.66,0,0,0-8.63,2.42,18.64,18.64,0,0,0-2.08,1.54v-3.15H189.36v47.14h16.16v-26c0-2.38.52-4.14,1.54-5.23a5.36,5.36,0,0,1,4.17-1.59,5,5,0,0,1,4,1.55c1,1.09,1.45,2.87,1.45,5.27v26h16.16V307.38c0-5.48-1.45-9.88-4.33-13.08S221.46,289.37,216.23,289.37Z"></path>
			<g id="j">
				<path class="cls-6 hMbgTzek_6" d="M245.05,290.18v43.49c0,1.71-.41,2.28-.59,2.45a2.48,2.48,0,0,1-1.81.6,13.37,13.37,0,0,1-2.26-.22l-2.28-.38v13.53l1.6.3c.9.16,1.78.29,2.61.38a29.83,29.83,0,0,0,3.07.14c5.06,0,9-1.31,11.71-3.89s4.12-6.62,4.12-11.94V290.18Z"></path>
				<path class="cls-6 hMbgTzek_7" d="M253.24,285.68a7.85,7.85,0,1,0-7.84-7.84A7.85,7.85,0,0,0,253.24,285.68Z"></path>
			</g>
			<path id="u" class="cls-7 hMbgTzek_8" d="M295.87,316.19c0,2.37-.52,4.14-1.54,5.23a5.37,5.37,0,0,1-4.18,1.59,5,5,0,0,1-4-1.55c-1-1.1-1.46-2.87-1.46-5.27v-26H268.52v29.94c0,5.47,1.46,9.87,4.33,13.08s7.07,4.92,12.3,4.92a16.23,16.23,0,0,0,4.77-.66,15.42,15.42,0,0,0,3.86-1.76,19.73,19.73,0,0,0,2.09-1.54v3.16H312V290.18H295.87Z"></path>
			<path id="k" class="cls-8 hMbgTzek_9" d="M348.1,290.18L336.55,302.82L336.55,269.65L320.39,269.65L320.39,337.32L336.55,337.32L336.55,322.99L338.58,320.86L349.11,337.32L367.8,337.32L349.67,309.39L368.24,290.18L348.1,290.18Z"></path>
			<path id="u-2" data-name="u" class="cls-9 hMbgTzek_10" d="M400.05,316.19c0,2.37-.52,4.14-1.54,5.23a5.37,5.37,0,0,1-4.18,1.59,5,5,0,0,1-4-1.55c-1-1.1-1.44-2.87-1.44-5.27v-26H372.69v29.94c0,5.48,1.47,9.87,4.34,13.08s7.07,4.92,12.3,4.92a16.23,16.23,0,0,0,4.77-.66A15.66,15.66,0,0,0,398,335.7a19.61,19.61,0,0,0,2.08-1.54v3.16h16.16V290.18H400.05Z"></path>
			<path id="_." data-name="." class="cls-10 hMbgTzek_11" d="M435.4,319.23a9.33,9.33,0,1,0,9.34,9.32A9.33,9.33,0,0,0,435.4,319.23Z"></path>
			<path id="L" class="cls-11 hMbgTzek_12" d="M468.84,272.07L452.51,272.07L452.51,337.32L496.99,337.32L496.99,322.2L468.84,322.2L468.84,272.07Z"></path>
			<path id="T" class="cls-12 hMbgTzek_13" d="M498.41,272.07L498.41,287.43L515.58,287.43L515.58,337.32L531.91,337.32L531.91,287.43L549.1,287.43L549.1,272.07L498.41,272.07Z"></path>
		</g>
		<g id="_squirrel" data-name="squirrel">
			<path id="_squirrel_base" data-name="squirrel_base" class="cls-1 hMbgTzek_14" d="M140.43,218.75a31.26,31.26,0,0,0,1-7.89,28.89,28.89,0,0,0-3.31-13.61A11.2,11.2,0,1,0,122,183.76a34.85,34.85,0,0,0-22.26,0,11.21,11.21,0,1,0-16.25,13.48,28.78,28.78,0,0,0-3.35,13.67,31.62,31.62,0,0,0,1,8,11.87,11.87,0,0,0-3.69,8.24c0,6.16,2.87,10.75,8.54,13.66,4.34,2.24,10.44,3.52,18.63,3.92a12.28,12.28,0,0,0,12.47,0c8.19-.4,14.29-1.68,18.63-3.91,5.67-2.92,8.54-7.51,8.54-13.67A11.86,11.86,0,0,0,140.43,218.75Z"></path>
			<g id="_squirrel_line" data-name="squirrel_line">
				<path id="line4" class="cls-13 hMbgTzek_15" d="M120.17,223.29a2.08,2.08,0,0,0-2,1.75c-.15.42-.91,1.09-2.89,1.11a2.79,2.79,0,0,1-2.52-1.11l2.21-2.63a2.07,2.07,0,0,0-1.58-3.4h-6a2.07,2.07,0,0,0-1.59,3.4l2.22,2.63a2.76,2.76,0,0,1-2.52,1.11c-2,0-2.75-.7-2.9-1.12a2.07,2.07,0,0,0-4.11.33,5.16,5.16,0,0,0,3.07,4.11c.49,6.52,4.81,9.51,8.84,9.51s8.36-3,8.85-9.51a5.16,5.16,0,0,0,3.07-4.11A2.07,2.07,0,0,0,120.17,223.29Zm-9.85,11.55c-1.84,0-3.95-1.24-4.57-4.55a6.93,6.93,0,0,0,4.57-1.75,7,7,0,0,0,4.58,1.75C114.28,233.6,112.17,234.84,110.32,234.84Z"></path>
				<path id="line3" class="cls-13 hMbgTzek_16" d="M99.38,214.35a3.22,3.22,0,1,0-3.22,3.22A3.22,3.22,0,0,0,99.38,214.35Z"></path>
				<path id="line2" class="cls-13 hMbgTzek_17" d="M125.51,211.13a3.22,3.22,0,1,0,3.22,3.22A3.22,3.22,0,0,0,125.51,211.13Z"></path>
				<path id="line1" class="cls-13 hMbgTzek_18" d="M140.44,218.74a31.57,31.57,0,0,0,1-7.88,28.89,28.89,0,0,0-3.31-13.61A11.2,11.2,0,1,0,122,183.76a34.85,34.85,0,0,0-22.26,0,11.21,11.21,0,1,0-16.25,13.48,28.78,28.78,0,0,0-3.35,13.67,31.62,31.62,0,0,0,1,8,11.87,11.87,0,0,0-3.69,8.24c0,6.16,2.87,10.75,8.54,13.66,4.34,2.24,10.44,3.52,18.63,3.92a12.28,12.28,0,0,0,12.47,0c8.19-.4,14.29-1.68,18.63-3.91,5.67-2.92,8.54-7.51,8.54-13.67A11.93,11.93,0,0,0,140.44,218.74Zm-7.94-38.25a7.06,7.06,0,0,1,3.4,13.26,27.42,27.42,0,0,0-3.52-3.88,29.39,29.39,0,0,0-6.6-4.5A7.09,7.09,0,0,1,132.5,180.49Zm-50.39,7.07a7.06,7.06,0,0,1,13.76-2.25,29.17,29.17,0,0,0-6.72,4.56,27.94,27.94,0,0,0-3.48,3.83A7.07,7.07,0,0,1,82.11,187.56Zm34.13,53a2.12,2.12,0,0,0-1.27.5,7.89,7.89,0,0,1-8.27,0,2.1,2.1,0,0,0-1.27-.5c-16.5-.7-23.86-4.85-23.86-13.47,0-2.09,1.1-4.13,3.26-6.07a2,2,0,0,0,.6-2.15,27.37,27.37,0,0,1-1.19-8,24.66,24.66,0,0,1,3.13-12.24,23.31,23.31,0,0,1,2.94-4.09A24.08,24.08,0,0,1,95.8,190a26,26,0,0,1,4.57-2.18l1.08-.37v6.25a2.41,2.41,0,1,0,4.82,0v-7.34c.58-.08,1.16-.15,1.76-.2v9.9a2.81,2.81,0,0,0,5.62,0v-9.89c.59,0,1.17.13,1.75.21v7.32a2.41,2.41,0,1,0,4.82,0v-6.2c.37.11.73.24,1.08.36a27.41,27.41,0,0,1,4.62,2.24,24.61,24.61,0,0,1,5.27,4.39,24,24,0,0,1,3,4.14,24.7,24.7,0,0,1,3.11,12.22,27.52,27.52,0,0,1-1.16,7.93,2.07,2.07,0,0,0,.61,2.16c1.53,1.34,3.36,3.51,3.36,6.15C140.1,235.72,132.74,239.87,116.24,240.57Z"></path>
			</g>
		</g>
		<g id="rabbit">
			<path id="rabbit_base" class="cls-1 hMbgTzek_19" d="M212.72,112.8c.83-5.37.8-9.81-.11-13.21-1.47-5.49-4.91-7.13-7.53-7.54a8.22,8.22,0,0,0-1.39-.11c-6.11,0-10.44,6.24-12.2,17.56q-.19,1.23-.3,2.46a38.85,38.85,0,0,0-14.8-2.9h-.24a38.56,38.56,0,0,0-14.63,3c-.07-.84-.17-1.67-.3-2.51-1.76-11.32-6.1-17.56-12.21-17.56a8.11,8.11,0,0,0-1.38.11c-2.62.41-6.06,2-7.53,7.54-.91,3.4-.95,7.85-.11,13.21a29.33,29.33,0,0,0,4.94,12.84A31.39,31.39,0,0,0,139.69,143a23.11,23.11,0,0,0,11,20.13c6.43,4.22,15.22,6.44,25.41,6.44h.41c10.67-.06,19.24-2.12,25.49-6.12,7.31-4.67,11-11.69,11-20.87a30.78,30.78,0,0,0-5.16-17A29.51,29.51,0,0,0,212.72,112.8Z"></path>
			<g id="rabbit_line">
				<path id="line4-2" data-name="line4" class="cls-14 hMbgTzek_20" d="M184.55,146a1.78,1.78,0,0,0-1.77,1.57c-.11.29-.72.81-2.34.83a2.29,2.29,0,0,1-2-.85l1.8-2.18a1.76,1.76,0,0,0,.24-1.89,1.8,1.8,0,0,0-1.61-1l-5,0a1.77,1.77,0,0,0-1.34,2.92l1.83,2.15a2.28,2.28,0,0,1-2,.88h0c-1.62,0-2.24-.52-2.36-.82a1.78,1.78,0,0,0-3.54.24,4.24,4.24,0,0,0,2.62,3.49,8.54,8.54,0,0,0,2.25,4.61,7.25,7.25,0,0,0,5.13,2.4h0c3.23,0,6.79-3,7.33-7.11a4.24,4.24,0,0,0,2.57-3.49A1.77,1.77,0,0,0,184.55,146Zm-8.15,8.82h0a3.75,3.75,0,0,1-2.55-1.29,5.14,5.14,0,0,1-1-1.55,5.76,5.76,0,0,0,3.54-1.45,5.71,5.71,0,0,0,3.55,1.4A4.39,4.39,0,0,1,176.4,154.8Z"></path>
				<path id="line3-2" data-name="line3" class="cls-14 hMbgTzek_21" d="M161.77,138.4a2.89,2.89,0,1,0,2.91,2.86A2.89,2.89,0,0,0,161.77,138.4Z"></path>
				<path id="line2-2" data-name="line2" class="cls-14 hMbgTzek_22" d="M190.9,138.23a2.89,2.89,0,1,0,2.9,2.88A2.9,2.9,0,0,0,190.9,138.23Z"></path>
				<path id="line1-2" data-name="line1" class="cls-14 hMbgTzek_23" d="M212.72,112.8c.83-5.37.8-9.81-.11-13.21-1.47-5.49-4.91-7.13-7.53-7.54a8.22,8.22,0,0,0-1.39-.11c-6.11,0-10.44,6.24-12.2,17.56q-.19,1.23-.3,2.46a38.85,38.85,0,0,0-14.8-2.9h-.24a38.56,38.56,0,0,0-14.63,3c-.07-.84-.17-1.67-.3-2.51-1.76-11.32-6.1-17.56-12.21-17.56a8.11,8.11,0,0,0-1.38.11c-2.62.41-6.06,2-7.53,7.54-.91,3.4-.95,7.85-.11,13.21a29.33,29.33,0,0,0,4.94,12.84A31.39,31.39,0,0,0,139.69,143a23.11,23.11,0,0,0,11,20.13c6.43,4.22,15.22,6.44,25.41,6.44h.41c10.67-.06,19.24-2.12,25.49-6.12,7.31-4.67,11-11.69,11-20.87a30.78,30.78,0,0,0-5.16-17A29.51,29.51,0,0,0,212.72,112.8Zm-17.14-2.67c1.37-8.8,4.4-14,8.11-14a4.93,4.93,0,0,1,.75.06c1.32.21,3.2.9,4.17,4.52.75,2.8.75,6.78,0,11.5a26.89,26.89,0,0,1-3.4,9.87c-.36-.41-.72-.81-1.09-1.2.3-1.17.55-2.4.75-3.7,1.07-6.86.88-12.58-1.94-13-2.66-.42-4.59,4.54-5.68,11q-1-.64-2-1.23A31,31,0,0,1,195.58,110.13Zm-51.5,2c-.74-4.72-.73-8.7,0-11.5,1-3.62,2.84-4.31,4.17-4.52a4.71,4.71,0,0,1,.74-.06c3.71,0,6.75,5.25,8.12,14a32.12,32.12,0,0,1,.36,3.83c-.69.39-1.37.81-2,1.24-1.09-6.5-3-11.5-5.69-11.08-2.83.43-3,6.15-2,13,.21,1.34.48,2.62.79,3.82-.36.38-.71.78-1.06,1.18A26.91,26.91,0,0,1,144.08,112.16Zm64.8,30.37c0,19.71-20.3,22.78-32.39,22.85h-.39c-9.25,0-17.47-2-23.14-5.76-6.07-4-9.14-9.59-9.14-16.67a27.65,27.65,0,0,1,4.05-14.31,30.36,30.36,0,0,1,2.29-3.26l.09-.12a31.54,31.54,0,0,1,5.73-5.45c.4-.29.81-.57,1.22-.85a31.69,31.69,0,0,1,4.41-2.49,34.64,34.64,0,0,1,14.56-3.26h.22a34.75,34.75,0,0,1,14.71,3.24,35.2,35.2,0,0,1,4.4,2.48l1.23.86c.92.69,1.82,1.42,2.68,2.2a32.37,32.37,0,0,1,3.08,3.25.39.39,0,0,1,.08.1,28.13,28.13,0,0,1,2.32,3.27A26.51,26.51,0,0,1,208.88,142.53Z"></path>
			</g>
		</g>
		<g id="pig">
			<path id="_pig_base" data-name="pig_base" class="cls-1 hMbgTzek_24" d="M294.16,60.67a12.84,12.84,0,0,0-7.29-2.83,5.54,5.54,0,0,0-4.44,1.91c-.11.14-.21.32-.32.49a40.12,40.12,0,0,0-40.82,0c-.11-.17-.21-.35-.32-.49a5.55,5.55,0,0,0-4.44-1.9,12.89,12.89,0,0,0-7.29,2.82c-6.7,4.88-6.7,9.08-5.51,11.75.84,1.9,2.88,2.85,4.87,3.34a46.89,46.89,0,0,0-3.27,17.82c0,8.27,3.75,14.43,11.16,18.3,6,3.13,14.48,4.73,25.21,4.73s19.21-1.6,25.21-4.73c7.41-3.87,11.16-10,11.16-18.3a47,47,0,0,0-3.27-17.83c2-.49,4-1.44,4.87-3.34C300.86,69.75,300.86,65.54,294.16,60.67Z"></path>
			<g id="pig_line">
				<path id="line6" class="cls-15 hMbgTzek_25" d="M257.83,90.66a1.78,1.78,0,0,0-1.78,1.77v3a1.78,1.78,0,0,0,3.55,0v-3A1.77,1.77,0,0,0,257.83,90.66Z"></path>
				<path id="line5" class="cls-15 hMbgTzek_26" d="M265.32,90.66a1.78,1.78,0,0,0-1.78,1.77v3a1.78,1.78,0,0,0,3.56,0v-3A1.78,1.78,0,0,0,265.32,90.66Z"></path>
				<path id="line4-3" data-name="line4" class="cls-15 hMbgTzek_27" d="M272.26,85.86c-2.6-1.91-6.24-2.92-10.54-2.92-9,0-15,4.41-15,11s6,11,15,11c4.3,0,7.94-1,10.54-2.92a9.93,9.93,0,0,0,0-16.13Zm-10.54,15.5c-6.94,0-11.42-2.92-11.42-7.44s4.48-7.44,11.42-7.44,11.13,2.85,11.13,7.44S268.58,101.36,261.72,101.36Z"></path><path id="line3-3" data-name="line3" class="cls-15 hMbgTzek_28" d="M242.69,79.13a3.52,3.52,0,1,0,3.51,3.51A3.51,3.51,0,0,0,242.69,79.13Z"></path><path id="line2-3" data-name="line2" class="cls-15 hMbgTzek_29" d="M280.71,79.13a3.52,3.52,0,1,0,3.52,3.51A3.51,3.51,0,0,0,280.71,79.13Z"></path>
				<path id="line1-3" data-name="line1" class="cls-15 hMbgTzek_30" d="M294.16,60.67a12.84,12.84,0,0,0-7.29-2.83,5.54,5.54,0,0,0-4.44,1.91c-.11.14-.21.32-.32.49a40.12,40.12,0,0,0-40.82,0c-.11-.17-.21-.35-.32-.49a5.55,5.55,0,0,0-4.44-1.9,12.89,12.89,0,0,0-7.29,2.82c-6.7,4.88-6.7,9.08-5.51,11.75.84,1.9,2.88,2.85,4.87,3.34a46.89,46.89,0,0,0-3.27,17.82c0,8.27,3.75,14.43,11.16,18.3,6,3.13,14.48,4.73,25.21,4.73s19.21-1.6,25.21-4.73c7.41-3.87,11.16-10,11.16-18.3a47,47,0,0,0-3.27-17.83c2-.49,4-1.44,4.87-3.34C300.86,69.75,300.86,65.54,294.16,60.67ZM227.51,70.74c-.82-1.85.58-4.11,4.17-6.72,2.43-1.77,4.08-2,4.85-2a1.6,1.6,0,0,1,1.21.36,1.5,1.5,0,0,1,.22.37,12.8,12.8,0,0,1,1,4.61,8.88,8.88,0,0,1-.12,1.94,2.75,2.75,0,0,1-1,1.84,8.25,8.25,0,0,1-2.74.82,15.45,15.45,0,0,1-2.32.19,15,15,0,0,1-2.41-.2C228.64,71.61,227.65,71,227.51,70.74Zm34.19,41.73c-21.39,0-32.23-6.36-32.23-18.89a41.8,41.8,0,0,1,3.35-17.32h0A14.93,14.93,0,0,0,240,74.69,6.44,6.44,0,0,0,242.94,70a15.39,15.39,0,0,0-.17-5.77,35.6,35.6,0,0,1,37.86,0,15.82,15.82,0,0,0-.17,5.77,6.39,6.39,0,0,0,3,4.66,14.72,14.72,0,0,0,7.14,1.57h0a41.82,41.82,0,0,1,3.35,17.33C293.93,106.11,283.09,112.47,261.7,112.47Zm34.19-41.74c-.13.29-1.13.88-2.94,1.18a13.73,13.73,0,0,1-2.4.2,15.7,15.7,0,0,1-2.33-.19,8,8,0,0,1-2.73-.82,2.7,2.7,0,0,1-1-1.84,8.76,8.76,0,0,1-.11-1.93,13.08,13.08,0,0,1,1-4.61,2.35,2.35,0,0,1,.23-.38,1.65,1.65,0,0,1,1.21-.35c.77,0,2.42.26,4.86,2C295.31,66.62,296.71,68.88,295.89,70.73Z"></path>
			</g>
		</g>
		<g id="_panda" data-name="panda">
			<path id="_panda_base" data-name="panda_base" class="cls-1 hMbgTzek_31" d="M391.77,63.81a13.13,13.13,0,0,0-24.72-6.16,35.26,35.26,0,0,0-13.89-2.71,34.05,34.05,0,0,0-13.82,2.85A13.13,13.13,0,1,0,321.6,75.46a38,38,0,0,0-3.72,16.18c0,8.77,3.63,15.25,10.78,19.28,5.84,3.28,13.86,4.88,24.5,4.88,10.27,0,18.52-1.77,24.52-5.27a20.8,20.8,0,0,0,10.76-18.89,39.41,39.41,0,0,0-3.56-16.27A13.13,13.13,0,0,0,391.77,63.81Z"></path>
			<g id="_panda_line" data-name="panda_line">
				<path id="line4-4" data-name="line4" class="cls-16 hMbgTzek_32" d="M363.53,97.93a2.08,2.08,0,0,0-2.06,1.83c-.09.41-.56,1.62-3,1.65h0a2.75,2.75,0,0,1-2.65-1.78l3-3.53a2.07,2.07,0,0,0-1.59-3.4h-7.35a2.07,2.07,0,0,0-1.58,3.4l3,3.53a2.73,2.73,0,0,1-2.68,1.78c-2.42,0-2.9-1.26-3-1.68a2.07,2.07,0,0,0-4.12.27c0,1.08,1.26,5.48,7.06,5.55h.1a6.58,6.58,0,0,0,4.93-2,6.58,6.58,0,0,0,4.93,2h.11c5.79-.07,7.05-4.47,7.05-5.55A2.07,2.07,0,0,0,363.53,97.93Z"></path>
				<path id="line3-4" data-name="line3" class="cls-16 hMbgTzek_33" d="M347.07,86.4c.85-5.32-2-9.66-6.74-9.66s-9.79,4.34-10.53,9.66c-.62,4.45,3.86,8.13,8.63,8.13S346.36,90.84,347.07,86.4Z"></path>
				<path id="line2-4" data-name="line2" class="cls-16 hMbgTzek_34" d="M365.84,76.74c-4.77,0-7.58,4.34-6.73,9.66.7,4.44,3.86,8.13,8.63,8.13s9.26-3.68,8.63-8.13C375.63,81.08,370.61,76.74,365.84,76.74Z"></path>
				<path id="line1-4" data-name="line1" class="cls-16 hMbgTzek_35" d="M391.77,63.81a13.13,13.13,0,0,0-24.72-6.16,35.26,35.26,0,0,0-13.89-2.71,34.05,34.05,0,0,0-13.82,2.85A13.13,13.13,0,1,0,321.6,75.46a38,38,0,0,0-3.72,16.18c0,8.77,3.63,15.25,10.78,19.28,5.84,3.28,13.86,4.88,24.5,4.88,10.27,0,18.52-1.77,24.52-5.27a20.8,20.8,0,0,0,10.76-18.89,39.41,39.41,0,0,0-3.56-16.27A13.13,13.13,0,0,0,391.77,63.81ZM375.59,107c-5.27,3.08-13,4.71-22.43,4.71-21,0-31.14-6.55-31.14-20a34,34,0,0,1,3.53-14.87,31.74,31.74,0,0,1,15.09-15,29.81,29.81,0,0,1,12.52-2.68,31.4,31.4,0,0,1,12.54,2.49A30.14,30.14,0,0,1,381,76.74a35.32,35.32,0,0,1,3.31,14.9C384.29,98.43,381.37,103.59,375.59,107Z"></path>
			</g>
		</g>
		<g id="rhino">
			<path id="rhino_base" class="cls-1 hMbgTzek_36" d="M465,140.18c-1.56-12.23-4.47-22.17-8.64-29.57a24.53,24.53,0,0,0,3.5-7.74c.11-.44.22-.86.32-1.24.66-2.49,1.35-5.07-1.23-7.09a3,3,0,0,0-1.88-.59c-2.7,0-8.77,2.79-11.85,4.68a24.08,24.08,0,0,0-12.31-3.24h-.17a25.47,25.47,0,0,0-12.39,3.14c-3.18-2-9.12-4.58-11.72-4.58a3,3,0,0,0-1.9.59c-2.59,2-1.89,4.6-1.23,7.09.1.38.21.8.32,1.24a25.18,25.18,0,0,0,3.3,7.44c-3.91,6.94-6.66,16.39-8.17,28.12-1.07,8.34.55,15,4.81,19.88,5.22,5.93,14.28,8.94,26.92,8.94h.49c12.26-.07,21.61-3.38,27-9.58C464.23,153.07,465.89,147,465,140.18Z"></path>
			<g id="rhino_line"><path id="line7" class="cls-17 hMbgTzek_37" d="M441.88,147.85a2.07,2.07,0,0,0-2.07,2.07c0,2.92-3.08,5.29-6.86,5.29s-6.87-2.37-6.87-5.29a2.07,2.07,0,1,0-4.14,0c0,5.2,4.94,9.43,11,9.43s11-4.23,11-9.43A2.07,2.07,0,0,0,441.88,147.85Z"></path>
				<path id="line6-2" data-name="line6" class="cls-17 hMbgTzek_38" d="M433,145c4.06,0,8.73-1,8.73-9.23,0-6.54-2.92-18.23-8.73-18.23s-8.74,11.69-8.74,18.23C424.21,143.9,428.87,145,433,145Zm-2.79-19c1.34-3.58,2.59-4.33,2.79-4.33s1.44.75,2.77,4.33a30.37,30.37,0,0,1,1.82,9.77c0,4.86-1.58,5.09-4.59,5.09s-4.61-.23-4.61-5.09A30.64,30.64,0,0,1,430.16,126Z"></path><path id="line5-2" data-name="line5" class="cls-17 hMbgTzek_39" d="M433.83,148.45c-.3,1.77.74,1.88,1.57,1.54a2.25,2.25,0,0,0,1.35-1.83,1.33,1.33,0,0,0-1.35-1.33C434.66,146.83,434,147.3,433.83,148.45Z"></path>
				<path id="line4-5" data-name="line4" class="cls-17 hMbgTzek_40" d="M430.49,146.83a1.34,1.34,0,0,0-1.36,1.33,2.24,2.24,0,0,0,1.36,1.83c.83.34,1.87.23,1.56-1.54C431.86,147.3,431.23,146.83,430.49,146.83Z"></path>
				<path id="line3-5" data-name="line3" class="cls-17 hMbgTzek_41" d="M419.26,137.3A2.71,2.71,0,1,0,422,140,2.71,2.71,0,0,0,419.26,137.3Z"></path>
				<path id="line2-5" data-name="line2" class="cls-17 hMbgTzek_42" d="M446.62,137.29a2.71,2.71,0,1,0,2.71,2.7A2.71,2.71,0,0,0,446.62,137.29Z"></path>
				<path id="line1-5" data-name="line1" class="cls-17 hMbgTzek_43" d="M465,140.18c-1.56-12.23-4.47-22.17-8.64-29.57a24.53,24.53,0,0,0,3.5-7.74c.11-.44.22-.86.32-1.24.66-2.49,1.35-5.07-1.23-7.09a3,3,0,0,0-1.88-.59c-2.7,0-8.77,2.79-11.85,4.68a24.08,24.08,0,0,0-12.31-3.24h-.17a25.47,25.47,0,0,0-12.39,3.14c-3.18-2-9.12-4.58-11.72-4.58a3,3,0,0,0-1.9.59c-2.59,2-1.89,4.6-1.23,7.09.1.38.21.8.32,1.24a25.18,25.18,0,0,0,3.3,7.44c-3.91,6.93-6.66,16.39-8.17,28.12-1.07,8.34.55,15,4.81,19.88,5.22,5.93,14.28,8.94,26.92,8.94h.49c12.26-.07,21.61-3.38,27-9.58C464.23,153.07,465.89,147,465,140.18Zm-7.91,14.76c-4.62,5.28-12.9,8.11-24,8.17h-.46c-11.4,0-19.41-2.54-23.81-7.55-3.44-3.91-4.73-9.5-3.81-16.61,1.53-11.83,4.31-21.14,8.28-27.67a2.06,2.06,0,0,0-.1-2.29,21.38,21.38,0,0,1-3.4-7.12c-.12-.47-.23-.91-.34-1.32a7.46,7.46,0,0,1-.46-2.43,34.26,34.26,0,0,1,10,4.49,2.09,2.09,0,0,0,2.38.11,21.06,21.06,0,0,1,11.38-3.19h.14a19.86,19.86,0,0,1,11.2,3.28,2.07,2.07,0,0,0,2.41-.09,36.38,36.38,0,0,1,10.12-4.59,7.38,7.38,0,0,1-.46,2.42c-.11.41-.22.85-.34,1.32a21.25,21.25,0,0,1-3.59,7.37,2.07,2.07,0,0,0-.12,2.32c4.24,7,7.19,16.81,8.77,29.13C461.64,146.42,460.36,151.21,457.1,154.94Z"></path>
			</g>
		</g>
		<g id="bear">
			<path id="bear_base" class="cls-1 hMbgTzek_44" d="M520.24,190.39a14,14,0,0,0-13.91-14.08h-.09a14,14,0,0,0-12,6.86,35.29,35.29,0,0,0-15-3.33H479a35.22,35.22,0,0,0-16.57,4.25,14,14,0,0,0-12.53-7.78h-.09a14,14,0,0,0-13.91,14.08,14.06,14.06,0,0,0,9.46,13.15,37.76,37.76,0,0,0-2.54,13.62c0,9.25,3.75,16.89,10.87,22.09,6.41,4.69,15.18,7.17,25.34,7.17h.37c10.62-.06,19.16-2.35,25.39-6.8,7.19-5.13,10.84-12.83,10.84-22.88a36.73,36.73,0,0,0-2.82-14.1A14,14,0,0,0,520.24,190.39Z"></path>
			<g id="bear_line">
				<path id="line4-6" data-name="line4" class="cls-18 hMbgTzek_45" d="M492.15,221a2.07,2.07,0,0,0-4.12-.29c-.07.23-.65,1.68-4,1.74H484a3.67,3.67,0,0,1-3.53-1.83l2.89-3.48a2.07,2.07,0,0,0-1.61-3.39l-7.35,0a2.08,2.08,0,0,0-1.56,3.42l2.93,3.44a3.69,3.69,0,0,1-3.59,1.87h0c-3.3,0-3.9-1.44-4-1.67a2.07,2.07,0,0,0-4.12.29,5.84,5.84,0,0,0,3.79,4.72,11.77,11.77,0,0,0,3.2,6.77,10,10,0,0,0,7.13,3.35h0c4.59,0,9.66-4.34,10.25-10.25A5.9,5.9,0,0,0,492.15,221Zm-14,10.85h0a6,6,0,0,1-4.13-2.07,7.94,7.94,0,0,1-1.83-3.12,8,8,0,0,0,5.93-2.35,8,8,0,0,0,5.86,2.27h.09C483.17,229.57,480.47,231.78,478.15,231.8Z"></path>
				<path id="line3-6" data-name="line3" class="cls-18 hMbgTzek_46" d="M465,212.75a3.25,3.25,0,1,1-3.25-3.24A3.24,3.24,0,0,1,465,212.75Z"></path>
				<path id="line2-6" data-name="line2" class="cls-18 hMbgTzek_47" d="M491.21,212.74a3.24,3.24,0,1,0,3.23-3.25A3.24,3.24,0,0,0,491.21,212.74Z"></path>
				<path id="line1-6" data-name="line1" class="cls-18 hMbgTzek_48" d="M520.24,190.39a14,14,0,0,0-13.91-14.08h-.09a14,14,0,0,0-12,6.86,35.29,35.29,0,0,0-15-3.33H479a35.22,35.22,0,0,0-16.57,4.25,14,14,0,0,0-12.53-7.78h-.09a14,14,0,0,0-13.91,14.08,14.06,14.06,0,0,0,9.46,13.15,37.76,37.76,0,0,0-2.54,13.62c0,9.25,3.75,16.89,10.87,22.09,6.41,4.69,15.18,7.17,25.34,7.17h.37c10.62-.06,19.16-2.35,25.39-6.8,7.19-5.13,10.84-12.83,10.84-22.88a36.73,36.73,0,0,0-2.82-14.1A14,14,0,0,0,520.24,190.39Zm-80.18,0a9.87,9.87,0,0,1,9.8-9.91h.06a9.89,9.89,0,0,1,9,5.83c-.66.46-1.31.95-1.94,1.46A6.9,6.9,0,1,0,448.09,198c-.35.58-.68,1.16-1,1.76A9.9,9.9,0,0,1,440.06,190.36Zm71.44,26.38c0,8.63-3.06,15.2-9.1,19.51-5.44,3.89-13.39,6-23,6h-.34c-15.51,0-32.07-6.6-32.07-25.12a33.57,33.57,0,0,1,2.54-12.87,31.72,31.72,0,0,1,2.13-4.29c.22-.38.45-.75.7-1.12a32.47,32.47,0,0,1,6.11-7c.42-.38.86-.74,1.3-1.09a33.93,33.93,0,0,1,4-2.66A31.33,31.33,0,0,1,479,184h.19a31,31,0,0,1,13.41,3.08,32.39,32.39,0,0,1,3.81,2.15c.51.33,1,.68,1.49,1a34.06,34.06,0,0,1,8.1,8.53c.29.45.58.9.85,1.37a32.49,32.49,0,0,1,4.61,16.6ZM511,198.91c-.42-.75-.86-1.49-1.33-2.21a6.9,6.9,0,0,0-5-11.58,6.84,6.84,0,0,0-4.44,1.58c-.76-.56-1.54-1.08-2.34-1.57a9.87,9.87,0,0,1,8.37-4.68h.06A9.84,9.84,0,0,1,511,198.91Z"></path>
			</g>
		</g>
		<g id="monkey">
			<path id="monkey_base" class="cls-1 hMbgTzek_49" d="M212.35,466.19a11.26,11.26,0,0,0-15-10.62,52.22,52.22,0,0,0-3.65-6.36C187.06,439.43,178,434,168.18,434c-10.17,0-19.37,5.41-25.87,15.2a49.38,49.38,0,0,0-3.51,6.27A11.25,11.25,0,0,0,124,466.19a11.28,11.28,0,0,0,9.61,11.15c0,.27,0,.55,0,.83,0,9.15,3.54,15.93,10.52,20.15,5.73,3.47,13.6,5.15,24,5.15s18.31-1.68,24-5.15c7-4.22,10.52-11,10.52-20.15,0-.28,0-.56,0-.83A11.29,11.29,0,0,0,212.35,466.19Z"></path>
			<g id="monkey_line">
				<path id="line6-3" data-name="line6" class="cls-19 hMbgTzek_50" d="M168.18,493.66c-5.32,0-9.64-3.64-9.64-8.13a2.07,2.07,0,1,1,4.14,0c0,2.16,2.52,4,5.5,4s5.51-1.83,5.51-4a2.07,2.07,0,0,1,4.14,0C177.83,490,173.5,493.66,168.18,493.66Z"></path>
				<path id="line5-3" data-name="line5" class="cls-19 hMbgTzek_51" d="M172.23,482.29a2.39,2.39,0,0,1-1.44,1.93c-.88.37-2,.25-1.66-1.63.21-1.22.87-1.72,1.66-1.72A1.43,1.43,0,0,1,172.23,482.29Z"></path>
				<path id="line4-7" data-name="line4" class="cls-19 hMbgTzek_52" d="M164.14,482.29a2.38,2.38,0,0,0,1.43,1.93c.88.37,2,.25,1.67-1.63-.21-1.22-.88-1.72-1.67-1.72A1.43,1.43,0,0,0,164.14,482.29Z"></path>
				<path id="line3-7" data-name="line3" class="cls-19 hMbgTzek_53" d="M163.23,474.41a2.88,2.88,0,1,1-2.88-2.88A2.87,2.87,0,0,1,163.23,474.41Z"></path>
				<path id="line2-7" data-name="line2" class="cls-19 hMbgTzek_54" d="M173.13,474.4a2.88,2.88,0,1,0,2.88-2.88A2.88,2.88,0,0,0,173.13,474.4Z"></path>
				<path id="line1-7" data-name="line1" class="cls-19 hMbgTzek_55" d="M212.35,466.19a11.26,11.26,0,0,0-15-10.62,52.22,52.22,0,0,0-3.65-6.36C187.06,439.43,178,434,168.18,434c-10.17,0-19.37,5.41-25.87,15.2a49.38,49.38,0,0,0-3.51,6.27A11.25,11.25,0,0,0,124,466.19a11.28,11.28,0,0,0,9.61,11.15c0,.27,0,.55,0,.83,0,9.15,3.54,15.93,10.52,20.15,5.73,3.47,13.6,5.15,24,5.15s18.31-1.68,24-5.15c7-4.22,10.52-11,10.52-20.15,0-.28,0-.56,0-.83A11.29,11.29,0,0,0,212.35,466.19Zm-78.46,7a7.12,7.12,0,1,1,3.29-13.85A55.78,55.78,0,0,0,133.89,473.18Zm56.71,14.38c-.43,6.88-12.39,10.67-17.15,11.6-1.67.11-3.43.17-5.27.17s-3.59-.06-5.27-.17c-4.76-.92-16.72-4.7-17.15-11.6-.64-10.33,4.73-12.44,5.14-12.59a2,2,0,0,0,1.36-1.27,2,2,0,0,0-.26-1.88c-.27-.39-6.45-9.66,2.95-16.46,5.1-3.67,11.68,3,11.74,3.08a.12.12,0,0,1,.05.05h0a.65.65,0,0,0,.16.13h0l.16.11h0l.17.1h0a2.09,2.09,0,0,0,1.55.12h0l.18-.07h0l.15-.07,0,0,.13-.08.06,0,.1-.08.07-.06.06-.05,0,0,0,0c.07-.07,6.65-6.75,11.74-3.08,3.91,2.83,5.62,6.39,5.09,10.59a15.35,15.35,0,0,1-2.13,5.87,2.06,2.06,0,0,0,1.11,3.15C185.54,475,191.27,476.85,190.6,487.56Zm2.89,4.59a10.43,10.43,0,0,0,1.25-4.33c.59-9.58-3.25-13.87-5.84-15.66a19.94,19.94,0,0,0,1.24-3.39,18.18,18.18,0,0,0,.44-2.13,15.17,15.17,0,0,0,0-4.41c-.51-3.31-2.27-7-6.72-10.22-3.39-2.45-7.49-2.56-11.87-.31a21.59,21.59,0,0,0-3.79,2.52,21.46,21.46,0,0,0-3.78-2.52c-4.38-2.25-8.48-2.14-11.87.31-4.45,3.22-6.22,6.91-6.73,10.22a15.14,15.14,0,0,0,0,4.41,16.36,16.36,0,0,0,.43,2.13,19.88,19.88,0,0,0,1.25,3.39c-2.59,1.79-6.43,6.08-5.84,15.66a10.43,10.43,0,0,0,1.25,4.33c-3.44-3.38-5.12-8-5.12-14,0-.33,0-.66,0-1,0-.7.06-1.43.11-2.16s.13-1.52.23-2.29a52.1,52.1,0,0,1,2.64-11.06c.26-.72.53-1.44.83-2.15s.56-1.33.86-2c4.9-10.62,13.58-19.34,25.74-19.34,8.4,0,16.24,4.74,22.09,13.36a46.39,46.39,0,0,1,3.49,6.12c.32.65.61,1.32.89,2s.59,1.43.86,2.15a50.57,50.57,0,0,1,2.73,10.93c.1.77.18,1.53.24,2.29s.09,1.45.11,2.16c0,.34,0,.67,0,1C198.6,484.16,196.92,488.77,193.49,492.15Zm9-19a53.92,53.92,0,0,0-3.45-13.8,7.12,7.12,0,1,1,3.45,13.8Z"></path>
			</g>
		</g>
		<g id="fox">
			<path id="fox_base" class="cls-1 hMbgTzek_56" d="M291.19,520.35a2.07,2.07,0,1,0-1-4l-5.82,1.38c0-.84.08-1.69.08-2.54,0-.21-.19-21.35-2.17-29-1.9-7.37-3.77-11.94-7.23-11.94h-.15c-1,0-2.75.12-10.85,11.94a30.32,30.32,0,0,0-7.6-.94,31.34,31.34,0,0,0-8.32,1.1c-.82-1.2-2.15-3.09-3.58-5-4.82-6.48-6.15-7-7.38-7.08h-.15c-3.46,0-5.33,4.57-7.22,11.94-1.8,7-2.18,25.63-2.18,29,0,.85,0,1.7.08,2.54l-5.81-1.38a2.07,2.07,0,1,0-1,4l7.28,1.74a38.57,38.57,0,0,0,2.79,9.18l-9.18,3a2.07,2.07,0,0,0,.63,4,2,2,0,0,0,.63-.1L233,535c5.17,8.61,13.59,14.24,23.1,14.24S274,543.61,279.17,535l9.87,3.16a1.93,1.93,0,0,0,.63.1,2.07,2.07,0,0,0,.63-4l-9.19-3a38.12,38.12,0,0,0,2.79-9.18Z"></path>
			<g id="fox_line">
				<path id="line4-8" data-name="line4" class="cls-6 hMbgTzek_57" d="M265.92,531a2.06,2.06,0,0,0-2.05,1.8c-.14.4-.9,1-2.89,1.06a2.8,2.8,0,0,1-2.52-1.1l2.22-2.64a2.07,2.07,0,0,0-1.59-3.4h-6a2.07,2.07,0,0,0-1.58,3.4l2.21,2.64a2.74,2.74,0,0,1-2.46,1.1h0c-2,0-2.75-.66-2.9-1.06a2.07,2.07,0,0,0-4.12.28c0,1.25,1.28,4.86,7,4.92h.09a7,7,0,0,0,4.85-1.75,6.94,6.94,0,0,0,4.84,1.75h.1c5.69-.06,7-3.67,7-4.92A2.07,2.07,0,0,0,265.92,531Z"></path>
				<path id="line3-8" data-name="line3" class="cls-6 hMbgTzek_58" d="M248.41,516.85a2,2,0,0,0,.75-.14,2.05,2.05,0,0,0,1.17-2.68,15.31,15.31,0,0,0-3.39-5c-2.48-2.35-5.26-3.55-6.74-2.91a2.07,2.07,0,0,0,.82,4l.19,0a7,7,0,0,1,2.9,1.92,11.27,11.27,0,0,1,2.37,3.52A2.07,2.07,0,0,0,248.41,516.85Z"></path>
				<path id="line2-8" data-name="line2" class="cls-6 hMbgTzek_59" d="M272,506.08c-1.47-.64-4.24.56-6.74,2.91a15.31,15.31,0,0,0-3.39,5,2.06,2.06,0,0,0,1.18,2.68,2,2,0,0,0,.75.14,2,2,0,0,0,1.92-1.32,11.6,11.6,0,0,1,2.38-3.52,7,7,0,0,1,2.89-1.92l.2,0a2.07,2.07,0,0,0,.81-4Z"></path>
				<path id="line1-8" data-name="line1" class="cls-6 hMbgTzek_60" d="M291.19,520.35a2.07,2.07,0,1,0-1-4l-5.82,1.38c0-.84.08-1.69.08-2.54,0-.21-.19-21.35-2.17-29-1.9-7.37-3.77-11.94-7.23-11.94h-.15c-1,0-2.75.11-10.85,11.94a30.32,30.32,0,0,0-7.6-.94,31.34,31.34,0,0,0-8.32,1.1c-.82-1.2-2.15-3.09-3.58-5-4.82-6.48-6.15-7-7.38-7.08h-.15c-3.46,0-5.33,4.57-7.22,11.94-1.8,7-2.18,25.63-2.18,29,0,.85,0,1.7.08,2.54l-5.81-1.38a2.07,2.07,0,1,0-1,4l7.28,1.74a38.57,38.57,0,0,0,2.79,9.18l-9.18,3a2.07,2.07,0,0,0,.63,4,2,2,0,0,0,.63-.1L233,535c5.17,8.61,13.59,14.24,23.1,14.24S274,543.61,279.17,535l9.87,3.16a1.93,1.93,0,0,0,.63.1,2.07,2.07,0,0,0,.63-4l-9.19-3a38.12,38.12,0,0,0,2.79-9.18Zm-11-1.63-4.79,1.14a2.07,2.07,0,0,0,.48,4.09,2,2,0,0,0,.48-.06l3.12-.74a33.07,33.07,0,0,1-2.32,6.85l-1.37-.44a2.07,2.07,0,1,0-1.27,3.94l.62.2c-4.46,6.94-11.34,11.4-19.05,11.4s-14.6-4.46-19-11.4l.62-.2a2.07,2.07,0,0,0-1.27-3.94L235,530a33.67,33.67,0,0,1-2.32-6.85l3.12.74a2.12,2.12,0,0,0,.49.06,2.07,2.07,0,0,0,.47-4.09L232,518.72c-.11-1.16-.17-2.35-.17-3.55,0-3.12.38-21.52,2-28,1.53-5.92,2.63-7.92,3.16-8.58,1.61,1.5,5.37,6.5,8.37,11a2.68,2.68,0,0,0,.18.33,2.08,2.08,0,0,0,2.39.82,26.86,26.86,0,0,1,8.55-1.36,26.08,26.08,0,0,1,7.85,1.17,2.06,2.06,0,0,0,2.34-.81c3.54-5.24,7-9.72,8.48-11.11.53.66,1.63,2.65,3.15,8.58s2,23.56,2,28C280.35,516.37,280.29,517.56,280.18,518.72Z"></path>
			</g>
		</g>
		<g id="cat">
			<path id="cat_base" class="cls-1 hMbgTzek_61" d="M391,515.6a2.07,2.07,0,0,0-2.49-1.53l-1.52.36a34.85,34.85,0,0,0-4.42-11.57,47.31,47.31,0,0,0,1.76-12.47c0-1.17-.19-11.5-5.09-12.79a5.32,5.32,0,0,0-1.4-.17c-4.18,0-9.43,4.52-13.44,8.76a31.86,31.86,0,0,0-27.46-.1c-4-4.19-9.21-8.66-13.35-8.66a5.32,5.32,0,0,0-1.4.17c-4.9,1.29-5.09,11.62-5.09,12.79a47.36,47.36,0,0,0,1.72,12.33,34.52,34.52,0,0,0-4.59,12.75l-5.86-1.4a2.07,2.07,0,0,0-1,4l6.57,1.56a26,26,0,0,0,2,9.83L308.33,532a2.07,2.07,0,0,0,.63,4,2.18,2.18,0,0,0,.63-.09l8.47-2.72A23.6,23.6,0,0,0,322.3,538c5.32,4.56,12.85,7.26,22.38,8a8.82,8.82,0,0,0,12.12,0c11.69-1.05,20.49-5.18,25.6-11.65l4.94,1.59a2.3,2.3,0,0,0,.64.09,2.07,2.07,0,0,0,.63-4l-3.88-1.24a24.84,24.84,0,0,0,2.71-11.63c0-.16,0-.33,0-.5l2.06-.49A2.08,2.08,0,0,0,391,515.6Z"></path>
			<g id="cat_line">
				<path id="line4-9" data-name="line4" class="cls-20 hMbgTzek_62" d="M359.88,521.2a2.08,2.08,0,0,0-2.05,1.78c-.15.41-.9,1.06-2.89,1.08a2.79,2.79,0,0,1-2.53-1.1l2.22-2.64a2.07,2.07,0,0,0-1.58-3.41h-6a2.08,2.08,0,0,0-1.58,3.41l2.21,2.64a2.79,2.79,0,0,1-2.47,1.1h0c-2,0-2.75-.69-2.91-1.11a2.07,2.07,0,0,0-4.11.32,5.14,5.14,0,0,0,3.07,4.11c.46,6.48,4.39,11.91,8.85,11.91s8.38-5.44,8.84-11.92a5,5,0,0,0,3.07-4.1A2.07,2.07,0,0,0,359.88,521.2ZM350,535.15c-1.42,0-4-2.65-4.6-7a6.88,6.88,0,0,0,4.6-1.74,6.81,6.81,0,0,0,4.59,1.74C354,532.5,351.45,535.15,350,535.15Z"></path>
				<path id="line3-9" data-name="line3" class="cls-20 hMbgTzek_63" d="M334.42,511.34a3.41,3.41,0,1,0,3.4,3.4A3.41,3.41,0,0,0,334.42,511.34Z"></path>
				<path id="line2-9" data-name="line2" class="cls-20 hMbgTzek_64" d="M365.47,511.34a3.41,3.41,0,1,0,3.41,3.4A3.41,3.41,0,0,0,365.47,511.34Z"></path>
				<path id="line1-9" data-name="line1" class="cls-20 hMbgTzek_65" d="M391,515.6a2.07,2.07,0,0,0-2.49-1.53l-1.52.36a34.85,34.85,0,0,0-4.42-11.57,47.31,47.31,0,0,0,1.76-12.47c0-1.17-.19-11.5-5.09-12.79a5.32,5.32,0,0,0-1.4-.17c-4.18,0-9.43,4.52-13.44,8.76a31.86,31.86,0,0,0-27.46-.1c-4-4.19-9.21-8.66-13.35-8.66a5.32,5.32,0,0,0-1.4.17c-4.9,1.29-5.09,11.62-5.09,12.79a47.36,47.36,0,0,0,1.72,12.33,34.52,34.52,0,0,0-4.59,12.75l-5.86-1.4a2.07,2.07,0,0,0-1,4l6.57,1.56a26,26,0,0,0,2,9.83L308.33,532a2.07,2.07,0,0,0,.63,4,2.18,2.18,0,0,0,.63-.09l8.47-2.72A23.6,23.6,0,0,0,322.3,538c5.32,4.56,12.85,7.26,22.38,8a8.82,8.82,0,0,0,12.12,0c11.69-1.05,20.49-5.18,25.6-11.65l4.94,1.59a2.3,2.3,0,0,0,.64.09,2.07,2.07,0,0,0,.63-4l-3.88-1.24a24.84,24.84,0,0,0,2.71-11.63c0-.16,0-.33,0-.5l2.06-.49A2.08,2.08,0,0,0,391,515.6Zm-10.31,13.83-6.64-2.12a2.07,2.07,0,1,0-1.26,3.94l5.32,1.71c-4.63,5-12.25,8.15-22.37,8.94a2.07,2.07,0,0,0-1.28.58,5.77,5.77,0,0,1-3.77,1.78,5.7,5.7,0,0,1-3.75-1.75,2.07,2.07,0,0,0-1.28-.58c-11.12-.79-19.11-4.27-23.53-10l2-.63a2.07,2.07,0,1,0-1.27-3.94l-2.87.92a21.35,21.35,0,0,1-1.79-7.57l4.09,1a2,2,0,0,0,.48.06,2.07,2.07,0,0,0,.48-4.08l-4.93-1.18a31.15,31.15,0,0,1,4.53-12.32,2,2,0,0,0,.23-1.67,44,44,0,0,1-1.8-12c0-4.59,1.24-8.32,2-8.81a1.48,1.48,0,0,1,.31,0c2.21,0,6.67,3.31,11.34,8.45a2.07,2.07,0,0,0,2.48.44,27.94,27.94,0,0,1,26.51.11,2.09,2.09,0,0,0,2.49-.45c4.71-5.2,9.2-8.55,11.43-8.55a1.58,1.58,0,0,1,.32,0c.8.49,2,4.22,2,8.81a44,44,0,0,1-1.84,12.17,2,2,0,0,0,.23,1.67A31.55,31.55,0,0,1,383,515.39l-9.28,2.22a2.07,2.07,0,0,0,.48,4.08,2,2,0,0,0,.48-.06l8.63-2.06A20.63,20.63,0,0,1,380.72,529.43Z">
				</path>
			</g>
		</g>
		<g id="capybara">
			<path id="capybara_base" class="cls-1 hMbgTzek_66" d="M470,477.43a75.59,75.59,0,0,0-7.09-23.6,15.37,15.37,0,0,0,3.07-5.74c1.48-4.81.85-9-1.61-10.66a4.67,4.67,0,0,0-2.68-.79,9,9,0,0,0-5,1.93,22,22,0,0,0-2.25,2l-.47.45c-5.52-5.54-11.75-8.34-18.56-8.34h-.15c-6.63,0-12.69,2.82-18,8.27l-.47-.45a23.55,23.55,0,0,0-2.13-1.88,9.41,9.41,0,0,0-5.13-2,4.61,4.61,0,0,0-1.4.21,4.74,4.74,0,0,0-2.85,2.39c-1.48,2.79-.61,6.78.05,8.9a15.37,15.37,0,0,0,3.1,5.77,79.88,79.88,0,0,0-7.13,24c-.87,6.55.46,12,4,16.27,4.67,5.66,12.9,8.92,24.49,9.7a13.3,13.3,0,0,0,11.92,0c11.88-.77,19.87-3.8,24.39-9.26C469.53,490.22,470.87,484.48,470,477.43Z"></path>
			<g id="capybara_line">
				<path id="line6-4" data-name="line6" class="cls-21 hMbgTzek_67" d="M443.5,486.11a2.07,2.07,0,0,0-2.06,1.9c-.11.35-.66.74-1.91.76a1.78,1.78,0,0,1-1.86-1.43v-8.21a2.08,2.08,0,0,0-4.15,0v8.23a1.74,1.74,0,0,1-1.82,1.46h0c-1.24,0-1.81-.42-1.92-.82a2.07,2.07,0,0,0-4.12.27,5,5,0,0,0,3.56,4.29,6.65,6.65,0,0,0,6.37,4.68h0a7,7,0,0,0,4.84-2,6.13,6.13,0,0,0,1.55-2.67,5,5,0,0,0,3.57-4.36A2.07,2.07,0,0,0,443.5,486.11Zm-7.92,7h0a2.77,2.77,0,0,1-1.62-.55,5.6,5.6,0,0,0,1.67-1,5.47,5.47,0,0,0,1.64,1A2.77,2.77,0,0,1,435.58,493.1Z"></path>
				<path id="line5-4" data-name="line5" class="cls-21 hMbgTzek_68" d="M432.36,474.39c.88.08,1.27-.32,1.52-1.7.32-1.77-.48-2.66-1.52-2.64a2.18,2.18,0,0,0-2.26,2.1A2.49,2.49,0,0,0,432.36,474.39Z"></path>
				<path id="line4-10" data-name="line4" class="cls-21 hMbgTzek_69" d="M438.85,474.39a2.5,2.5,0,0,0,2.26-2.24,2.19,2.19,0,0,0-2.26-2.1c-1.05,0-1.85.87-1.53,2.64C437.57,474.07,438,474.47,438.85,474.39Z"></path>
				<path id="line3-10" data-name="line3" class="cls-21 hMbgTzek_70" d="M418.9,463.77c-1.86,0-3.37.43-3.37,2.51,0,1.4,1.51,2.52,3.37,2.52s3.37-.69,3.37-2.08A3.36,3.36,0,0,0,418.9,463.77Z"></path>
				<path id="line2-10" data-name="line2" class="cls-21 hMbgTzek_71" d="M452.3,463.77a3.36,3.36,0,0,0-3.37,3c0,1.39,1.51,2.08,3.37,2.08s3.37-1.12,3.37-2.52C455.67,464.2,454.16,463.77,452.3,463.77Z"></path>
				<path id="line1-10" data-name="line1" class="cls-21 hMbgTzek_72" d="M470,477.43a75.59,75.59,0,0,0-7.09-23.6,15.37,15.37,0,0,0,3.07-5.74c1.48-4.81.85-9-1.61-10.66a4.67,4.67,0,0,0-2.68-.79,9,9,0,0,0-5,1.93,22,22,0,0,0-2.25,2l-.47.45c-5.52-5.54-11.75-8.34-18.56-8.34h-.15c-6.63,0-12.69,2.82-18,8.27l-.47-.45a23.55,23.55,0,0,0-2.13-1.88,9.41,9.41,0,0,0-5.13-2,4.61,4.61,0,0,0-1.4.21,4.74,4.74,0,0,0-2.85,2.39c-1.48,2.79-.61,6.78.05,8.9a15.37,15.37,0,0,0,3.1,5.77,79.88,79.88,0,0,0-7.13,24c-.87,6.55.46,12,4,16.27,4.67,5.66,12.9,8.92,24.49,9.7a13.3,13.3,0,0,0,11.92,0c11.88-.77,19.87-3.8,24.39-9.26C469.53,490.22,470.87,484.48,470,477.43Zm-7.18,14.42c-3.81,4.61-11,7.16-21.92,7.81a2,2,0,0,0-.93.29,9.09,9.09,0,0,1-8.63,0,2.14,2.14,0,0,0-.92-.28c-10.49-.64-18.1-3.48-22-8.22-2.74-3.33-3.77-7.73-3.06-13.09a75.89,75.89,0,0,1,7.4-24,2.07,2.07,0,0,0-.52-2.55,10.09,10.09,0,0,1-3-5c-.93-3-.77-5-.35-5.75.15-.28.28-.34.39-.37a.69.69,0,0,1,.2,0,5.24,5.24,0,0,1,2.65,1.16,20.23,20.23,0,0,1,1.74,1.54c.23.22.45.44.68.64a2.07,2.07,0,0,0,.52,2.66,2.06,2.06,0,0,0,2.9-.36l1-1.32c4.83-5.46,10.31-8.25,16.25-8.29h.13c6.05,0,11.64,2.75,16.61,8.17l.06.09,1.09,1.39a2.07,2.07,0,0,0,2.9.35,2.08,2.08,0,0,0,.55-2.61l.68-.64a20.49,20.49,0,0,1,1.83-1.61,5.17,5.17,0,0,1,2.58-1.13.62.62,0,0,1,.35.07c.4.27,1.14,2.26,0,6a10,10,0,0,1-3,4.95,2.07,2.07,0,0,0-.5,2.56A70.79,70.79,0,0,1,465.86,478C466.62,483.9,465.62,488.45,462.79,491.85Z"></path>
			</g>
		</g>
		<g id="dog">
			<path id="dog_base" class="cls-1 hMbgTzek_73" d="M533.48,378.25c-.71-4.68-3.89-8.6-9.21-11.35a29.31,29.31,0,0,0-12.63-3.25,4.36,4.36,0,0,0-3.4,1.26,27.62,27.62,0,0,0-32.18,0,4.37,4.37,0,0,0-3.41-1.26A29.34,29.34,0,0,0,460,366.9c-5.3,2.75-8.49,6.67-9.2,11.35a14.62,14.62,0,0,0,2.95,11.64,10.3,10.3,0,0,0,3.74,2.74,30.93,30.93,0,0,0-.64,6c0,8,3.68,14.73,10.66,19.31,6.27,4.13,14.79,6.3,24.62,6.3s18.34-2.17,24.62-6.3c7-4.58,10.66-11.26,10.66-19.31a31,31,0,0,0-.64-6,10.3,10.3,0,0,0,3.74-2.74A14.59,14.59,0,0,0,533.48,378.25Z"></path>
			<g id="dog_line">
				<path id="line4-11" data-name="line4" class="cls-22 hMbgTzek_74" d="M504.15,398.7a2.06,2.06,0,0,0-2.06,1.91c-.15.55-1.14,1.54-4,1.57h-.07a3.69,3.69,0,0,1-3.56-1.84l2.91-3.47a2.07,2.07,0,0,0-1.58-3.4h-7.35a2.07,2.07,0,0,0-1.59,3.4l2.91,3.47a3.68,3.68,0,0,1-3.56,1.84h-.07c-2.82,0-3.81-1-4-1.57a2.07,2.07,0,0,0-4.13.16,5.58,5.58,0,0,0,3.77,4.77c.7,5.5,5.75,9.48,10.3,9.48s9.6-4,10.3-9.48a5.58,5.58,0,0,0,3.77-4.77A2.06,2.06,0,0,0,504.15,398.7Zm-12,12.17a6.88,6.88,0,0,1-5.88-4.55,8,8,0,0,0,5.88-2.32,8,8,0,0,0,5.88,2.32A6.9,6.9,0,0,1,492.15,410.87Z"></path>
				<path id="line3-11" data-name="line3" class="cls-22 hMbgTzek_75" d="M481.14,391.76a3.1,3.1,0,1,0-3.1,3.09A3.1,3.1,0,0,0,481.14,391.76Z"></path>
				<path id="line2-11" data-name="line2" class="cls-22 hMbgTzek_76" d="M506.26,388.66a3.1,3.1,0,1,0,3.09,3.1A3.1,3.1,0,0,0,506.26,388.66Z"></path>
				<path id="line1-11" data-name="line1" class="cls-22 hMbgTzek_77" d="M533.48,378.25c-.71-4.68-3.89-8.6-9.21-11.35a29.31,29.31,0,0,0-12.63-3.25,4.36,4.36,0,0,0-3.4,1.26,27.62,27.62,0,0,0-32.18,0,4.37,4.37,0,0,0-3.41-1.26A29.34,29.34,0,0,0,460,366.9c-5.3,2.75-8.49,6.67-9.2,11.35a14.62,14.62,0,0,0,2.95,11.64,10.3,10.3,0,0,0,3.74,2.74,30.93,30.93,0,0,0-.64,6c0,8,3.68,14.73,10.66,19.31,6.27,4.13,14.79,6.3,24.62,6.3s18.34-2.17,24.62-6.3c7-4.58,10.66-11.26,10.66-19.31a31,31,0,0,0-.64-6,10.3,10.3,0,0,0,3.74-2.74A14.59,14.59,0,0,0,533.48,378.25Zm-76.57,8.94a10.46,10.46,0,0,1-2-8.31c1.16-7.56,11.81-10.92,17.35-11.07h.39a31.39,31.39,0,0,1-1.42,3,27.52,27.52,0,0,0-2.93,7.52,10.67,10.67,0,0,0-.19,1.86c0,7.42-3.27,8.8-5.37,9.07a9.4,9.4,0,0,1-1.21.06,5.77,5.77,0,0,1-3-.79A6.27,6.27,0,0,1,456.91,387.19Zm35.24,32.94c-14.36,0-31.14-5.62-31.14-21.47a26,26,0,0,1,.57-5.19c6.78,0,10.67-4.85,10.67-13.26,0-2.31,1.42-5.06,2.66-7.49.54-1.05,1-2,1.4-2.92a24.15,24.15,0,0,1,31.68,0c.37.91.86,1.87,1.4,2.92,1.25,2.43,2.66,5.18,2.66,7.49,0,8.41,3.89,13.24,10.67,13.26a26,26,0,0,1,.57,5.19C523.29,414.51,506.51,420.13,492.15,420.13Zm35.24-32.94a6.56,6.56,0,0,1-1.66,1.37,5.81,5.81,0,0,1-3,.78,9.4,9.4,0,0,1-1.21-.06c-2.1-.27-5.37-1.65-5.37-9.07a10.67,10.67,0,0,0-.19-1.86,27.21,27.21,0,0,0-2.93-7.52,31.66,31.66,0,0,1-1.43-3h.4c5.54.15,16.19,3.51,17.35,11.07A10.46,10.46,0,0,1,527.39,387.19Z"></path>
			</g>
		</g>
		<g id="tiger">
			<path id="tiger_base" class="cls-1 hMbgTzek_78" d="M144.78,402.61a2.07,2.07,0,1,0-1-4l-3.88.93a34,34,0,0,0-2.26-10.09,13,13,0,0,0-5.3-24.89h-.08A13,13,0,0,0,121,371.19a32.64,32.64,0,0,0-14.54-3.41h-.2a32.5,32.5,0,0,0-14.32,3.42,13,13,0,0,0-11.36-6.67h-.08a13,13,0,0,0-5.22,24.93,34.37,34.37,0,0,0-2.31,10.05L69,398.58a2.07,2.07,0,0,0-1,4l4.81,1.15a25.35,25.35,0,0,0,2.79,10.57l-6.71,2.15a2.07,2.07,0,0,0,.63,4,2.37,2.37,0,0,0,.64-.1l7.73-2.48c5.62,7.18,15.54,11.38,28.3,11.38h.34c13.36-.08,23.13-4.06,28.56-11.29l7.49,2.4a2.3,2.3,0,0,0,.63.1,2.07,2.07,0,0,0,.63-4l-6.55-2.1A27.27,27.27,0,0,0,140,403.76Z"></path>
			<g id="tiger_line">
				<path id="line3-12" data-name="line3" class="cls-23 hMbgTzek_79" d="M116.47,406.45a2.08,2.08,0,0,0-2,1.72c-.15.43-.91,1.14-2.9,1.17a2.77,2.77,0,0,1-2.53-1.09l2.2-2.65a2.07,2.07,0,0,0-1.59-3.39h0l-6,0a2.07,2.07,0,0,0-1.57,3.41l2.24,2.63a2.78,2.78,0,0,1-2.5,1.12h0c-2,0-2.75-.68-2.91-1.09a2.07,2.07,0,0,0-4.11.33,5.33,5.33,0,0,0,4,4.47,8.33,8.33,0,0,0,2.4,4.2,8.13,8.13,0,0,0,5.5,2.35h0a8.54,8.54,0,0,0,7.85-6.63,5.41,5.41,0,0,0,4-4.51A2.07,2.07,0,0,0,116.47,406.45Zm-9.83,9.07a4,4,0,0,1-2.64-1.19,5.24,5.24,0,0,1-.74-.92,6.68,6.68,0,0,0,3.38-1.65,6.7,6.7,0,0,0,3.35,1.6A4.31,4.31,0,0,1,106.64,415.52Z"></path>
				<path id="line3-13" data-name="line3" class="cls-23 hMbgTzek_80" d="M95.85,401.79a2.66,2.66,0,1,0-2.66,2.67A2.65,2.65,0,0,0,95.85,401.79Z"></path>
				<path id="line2-12" data-name="line2" class="cls-23 hMbgTzek_81" d="M120.05,399.12a2.66,2.66,0,1,0,2.66,2.66A2.67,2.67,0,0,0,120.05,399.12Z"></path>
				<path id="line1-12" data-name="line1" class="cls-23 hMbgTzek_82" d="M144.78,402.61a2.07,2.07,0,1,0-1-4l-3.88.93a34,34,0,0,0-2.26-10.09,13,13,0,0,0-5.3-24.89h-.08A13,13,0,0,0,121,371.19a32.64,32.64,0,0,0-14.54-3.41h-.2a32.5,32.5,0,0,0-14.32,3.42,13,13,0,0,0-11.36-6.67h-.08a13,13,0,0,0-5.22,24.93,34.37,34.37,0,0,0-2.31,10.05L69,398.58a2.07,2.07,0,0,0-1,4l4.81,1.15a25.35,25.35,0,0,0,2.79,10.57l-6.71,2.15a2.07,2.07,0,0,0,.63,4,2.37,2.37,0,0,0,.64-.1l7.73-2.48c5.62,7.18,15.54,11.38,28.3,11.38h.34c13.36-.08,23.13-4.06,28.56-11.29l7.49,2.4a2.3,2.3,0,0,0,.63.1,2.07,2.07,0,0,0,.63-4l-6.55-2.1A27.27,27.27,0,0,0,140,403.76Zm-73.14-25a8.89,8.89,0,0,1,8.84-8.95h0a8.9,8.9,0,0,1,7.78,4.6,34.61,34.61,0,0,0-5.8,4.87A35.24,35.24,0,0,0,77,385.71,8.91,8.91,0,0,1,71.64,377.62Zm55.81,27a2.08,2.08,0,0,0,2,1.6,2.63,2.63,0,0,0,.48-.06l5.83-1.39a22.18,22.18,0,0,1-2.41,8.34l-4-1.28a2.07,2.07,0,1,0-1.27,3.94l2.81.9a19.1,19.1,0,0,1-3.31,3c-5,3.55-12.24,5.45-21,5.51h-.32c-9,0-18.42-2.46-24.07-8.6l2.56-.82a2.07,2.07,0,0,0-1.26-3.94l-3.89,1.25a20.73,20.73,0,0,1-2.51-8.31l5.82,1.39a2.63,2.63,0,0,0,.48.06,2.07,2.07,0,0,0,.48-4.09L77,400.49a30.5,30.5,0,0,1,2.21-10,30.93,30.93,0,0,1,2.06-4.11,30.18,30.18,0,0,1,8.13-8.92,29.42,29.42,0,0,1,3.9-2.41,28.67,28.67,0,0,1,10.55-3v2.26h-3.2a2.66,2.66,0,1,0,0,5.32h3.2v2.5h-3.2a2.67,2.67,0,0,0,0,5.33h3.2v2.27a2.67,2.67,0,0,0,5.33,0v-2.27h3.2a2.67,2.67,0,0,0,0-5.33h-3.2v-2.5h3.2a2.66,2.66,0,0,0,0-5.32h-3.2v-2.23a28.52,28.52,0,0,1,10.3,3.09,31.52,31.52,0,0,1,3.92,2.42,31.13,31.13,0,0,1,8.11,8.84,31.71,31.71,0,0,1,2.09,4.11,29.44,29.44,0,0,1,2.22,10L129,402.12A2.07,2.07,0,0,0,127.45,404.61Zm8.48-18.93a34.79,34.79,0,0,0-5.76-7.77,34,34,0,0,0-5.64-4.65,8.91,8.91,0,0,1,7.77-4.59h.06a8.88,8.88,0,0,1,8.83,8.95A8.92,8.92,0,0,1,135.93,385.68Z"></path>
			</g>
		</g>
	</g>
	<g id="line">
		<path class="cls-24 hMbgTzek_83" d="M300,10c160.09.09,290,129.89,290,290S460.16,590,300,590,10,460.16,10,300,139.9,10.07,300,10"></path>
	</g>
	<style>
		.hMbgTzek_0{stroke-dasharray:1886 1888;stroke-dashoffset:1887;animation:hMbgTzek_draw_0 6200ms ease-in-out 0ms infinite,hMbgTzek_fade 6200ms linear 0ms infinite;}
		.hMbgTzek_1{stroke-dasharray:321 323;stroke-dashoffset:322;animation:hMbgTzek_draw_1 6200ms ease-in-out 0ms infinite,hMbgTzek_fade 6200ms linear 0ms infinite;}
		.hMbgTzek_2{stroke-dasharray:282 284;stroke-dashoffset:283;animation:hMbgTzek_draw_2 6200ms ease-in-out 0ms infinite,hMbgTzek_fade 6200ms linear 0ms infinite;}
		.hMbgTzek_3{stroke-dasharray:127 129;stroke-dashoffset:128;animation:hMbgTzek_draw_3 6200ms ease-in-out 0ms infinite,hMbgTzek_fade 6200ms linear 0ms infinite;}
		.hMbgTzek_4{stroke-dasharray:50 52;stroke-dashoffset:51;animation:hMbgTzek_draw_4 6200ms ease-in-out 0ms infinite,hMbgTzek_fade 6200ms linear 0ms infinite;}
		.hMbgTzek_5{stroke-dasharray:241 243;stroke-dashoffset:242;animation:hMbgTzek_draw_5 6200ms ease-in-out 0ms infinite,hMbgTzek_fade 6200ms linear 0ms infinite;}
		.hMbgTzek_6{stroke-dasharray:160 162;stroke-dashoffset:161;animation:hMbgTzek_draw_6 6200ms ease-in-out 0ms infinite,hMbgTzek_fade 6200ms linear 0ms infinite;}
		.hMbgTzek_7{stroke-dasharray:50 52;stroke-dashoffset:51;animation:hMbgTzek_draw_7 6200ms ease-in-out 0ms infinite,hMbgTzek_fade 6200ms linear 0ms infinite;}
		.hMbgTzek_8{stroke-dasharray:241 243;stroke-dashoffset:242;animation:hMbgTzek_draw_8 6200ms ease-in-out 0ms infinite,hMbgTzek_fade 6200ms linear 0ms infinite;}
		.hMbgTzek_9{stroke-dasharray:286 288;stroke-dashoffset:287;animation:hMbgTzek_draw_9 6200ms ease-in-out 0ms infinite,hMbgTzek_fade 6200ms linear 0ms infinite;}
		.hMbgTzek_10{stroke-dasharray:241 243;stroke-dashoffset:242;animation:hMbgTzek_draw_10 6200ms ease-in-out 0ms infinite,hMbgTzek_fade 6200ms linear 0ms infinite;}
		.hMbgTzek_11{stroke-dasharray:59 61;stroke-dashoffset:60;animation:hMbgTzek_draw_11 6200ms ease-in-out 0ms infinite,hMbgTzek_fade 6200ms linear 0ms infinite;}
		.hMbgTzek_12{stroke-dasharray:220 222;stroke-dashoffset:221;animation:hMbgTzek_draw_12 6200ms ease-in-out 0ms infinite,hMbgTzek_fade 6200ms linear 0ms infinite;}
		.hMbgTzek_13{stroke-dasharray:232 234;stroke-dashoffset:233;animation:hMbgTzek_draw_13 6200ms ease-in-out 0ms infinite,hMbgTzek_fade 6200ms linear 0ms infinite;}
		.hMbgTzek_14{stroke-dasharray:258 260;stroke-dashoffset:259;animation:hMbgTzek_draw_14 6200ms ease-in-out 0ms infinite,hMbgTzek_fade 6200ms linear 0ms infinite;}
		.hMbgTzek_15{stroke-dasharray:111 113;stroke-dashoffset:112;animation:hMbgTzek_draw_15 6200ms ease-in-out 0ms infinite,hMbgTzek_fade 6200ms linear 0ms infinite;}
		.hMbgTzek_16{stroke-dasharray:21 23;stroke-dashoffset:22;animation:hMbgTzek_draw_16 6200ms ease-in-out 0ms infinite,hMbgTzek_fade 6200ms linear 0ms infinite;}
		.hMbgTzek_17{stroke-dasharray:21 23;stroke-dashoffset:22;animation:hMbgTzek_draw_17 6200ms ease-in-out 0ms infinite,hMbgTzek_fade 6200ms linear 0ms infinite;}
		.hMbgTzek_18{stroke-dasharray:584 586;stroke-dashoffset:585;animation:hMbgTzek_draw_18 6200ms ease-in-out 0ms infinite,hMbgTzek_fade 6200ms linear 0ms infinite;}
		.hMbgTzek_19{stroke-dasharray:301 303;stroke-dashoffset:302;animation:hMbgTzek_draw_19 6200ms ease-in-out 0ms infinite,hMbgTzek_fade 6200ms linear 0ms infinite;}
		.hMbgTzek_20{stroke-dasharray:88 90;stroke-dashoffset:89;animation:hMbgTzek_draw_20 6200ms ease-in-out 0ms infinite,hMbgTzek_fade 6200ms linear 0ms infinite;}
		.hMbgTzek_21{stroke-dasharray:19 21;stroke-dashoffset:20;animation:hMbgTzek_draw_21 6200ms ease-in-out 0ms infinite,hMbgTzek_fade 6200ms linear 0ms infinite;}
		.hMbgTzek_22{stroke-dasharray:19 21;stroke-dashoffset:20;animation:hMbgTzek_draw_22 6200ms ease-in-out 0ms infinite,hMbgTzek_fade 6200ms linear 0ms infinite;}
		.hMbgTzek_23{stroke-dasharray:659 661;stroke-dashoffset:660;animation:hMbgTzek_draw_23 6200ms ease-in-out 0ms infinite,hMbgTzek_fade 6200ms linear 0ms infinite;}
		.hMbgTzek_24{stroke-dasharray:244 246;stroke-dashoffset:245;animation:hMbgTzek_draw_24 6200ms ease-in-out 0ms infinite,hMbgTzek_fade 6200ms linear 0ms infinite;}
		.hMbgTzek_25{stroke-dasharray:17 19;stroke-dashoffset:18;animation:hMbgTzek_draw_25 6200ms ease-in-out 0ms infinite,hMbgTzek_fade 6200ms linear 0ms infinite;}
		.hMbgTzek_26{stroke-dasharray:18 20;stroke-dashoffset:19;animation:hMbgTzek_draw_26 6200ms ease-in-out 0ms infinite,hMbgTzek_fade 6200ms linear 0ms infinite;}
		.hMbgTzek_27{stroke-dasharray:144 146;stroke-dashoffset:145;animation:hMbgTzek_draw_27 6200ms ease-in-out 0ms infinite,hMbgTzek_fade 6200ms linear 0ms infinite;}
		.hMbgTzek_28{stroke-dasharray:23 25;stroke-dashoffset:24;animation:hMbgTzek_draw_28 6200ms ease-in-out 0ms infinite,hMbgTzek_fade 6200ms linear 0ms infinite;}
		.hMbgTzek_29{stroke-dasharray:23 25;stroke-dashoffset:24;animation:hMbgTzek_draw_29 6200ms ease-in-out 0ms infinite,hMbgTzek_fade 6200ms linear 0ms infinite;}
		.hMbgTzek_30{stroke-dasharray:512 514;stroke-dashoffset:513;animation:hMbgTzek_draw_30 6200ms ease-in-out 0ms infinite,hMbgTzek_fade 6200ms linear 0ms infinite;}
		.hMbgTzek_31{stroke-dasharray:257 259;stroke-dashoffset:258;animation:hMbgTzek_draw_31 6200ms ease-in-out 0ms infinite,hMbgTzek_fade 6200ms linear 0ms infinite;}
		.hMbgTzek_32{stroke-dasharray:84 86;stroke-dashoffset:85;animation:hMbgTzek_draw_32 6200ms ease-in-out 0ms infinite,hMbgTzek_fade 6200ms linear 0ms infinite;}
		.hMbgTzek_33{stroke-dasharray:56 58;stroke-dashoffset:57;animation:hMbgTzek_draw_33 6200ms ease-in-out 0ms infinite,hMbgTzek_fade 6200ms linear 0ms infinite;}
		.hMbgTzek_34{stroke-dasharray:56 58;stroke-dashoffset:57;animation:hMbgTzek_draw_34 6200ms ease-in-out 0ms infinite,hMbgTzek_fade 6200ms linear 0ms infinite;}
		.hMbgTzek_35{stroke-dasharray:441 443;stroke-dashoffset:442;animation:hMbgTzek_draw_35 6200ms ease-in-out 0ms infinite,hMbgTzek_fade 6200ms linear 0ms infinite;}
		.hMbgTzek_36{stroke-dasharray:250 252;stroke-dashoffset:251;animation:hMbgTzek_draw_36 6200ms ease-in-out 0ms infinite,hMbgTzek_fade 6200ms linear 0ms infinite;}
		.hMbgTzek_37{stroke-dasharray:65 67;stroke-dashoffset:66;animation:hMbgTzek_draw_37 6200ms ease-in-out 0ms infinite,hMbgTzek_fade 6200ms linear 0ms infinite;}
		.hMbgTzek_38{stroke-dasharray:120 122;stroke-dashoffset:121;animation:hMbgTzek_draw_38 6200ms ease-in-out 0ms infinite,hMbgTzek_fade 6200ms linear 0ms infinite;}
		.hMbgTzek_39{stroke-dasharray:10 12;stroke-dashoffset:11;animation:hMbgTzek_draw_39 6200ms ease-in-out 0ms infinite,hMbgTzek_fade 6200ms linear 0ms infinite;}
		.hMbgTzek_40{stroke-dasharray:10 12;stroke-dashoffset:11;animation:hMbgTzek_draw_40 6200ms ease-in-out 0ms infinite,hMbgTzek_fade 6200ms linear 0ms infinite;}
		.hMbgTzek_41{stroke-dasharray:18 20;stroke-dashoffset:19;animation:hMbgTzek_draw_41 6200ms ease-in-out 0ms infinite,hMbgTzek_fade 6200ms linear 0ms infinite;}
		.hMbgTzek_42{stroke-dasharray:18 20;stroke-dashoffset:19;animation:hMbgTzek_draw_42 6200ms ease-in-out 0ms infinite,hMbgTzek_fade 6200ms linear 0ms infinite;}
		.hMbgTzek_43{stroke-dasharray:475 477;stroke-dashoffset:476;animation:hMbgTzek_draw_43 6200ms ease-in-out 0ms infinite,hMbgTzek_fade 6200ms linear 0ms infinite;}
		.hMbgTzek_44{stroke-dasharray:274 276;stroke-dashoffset:275;animation:hMbgTzek_draw_44 6200ms ease-in-out 0ms infinite,hMbgTzek_fade 6200ms linear 0ms infinite;}
		.hMbgTzek_45{stroke-dasharray:130 132;stroke-dashoffset:131;animation:hMbgTzek_draw_45 6200ms ease-in-out 0ms infinite,hMbgTzek_fade 6200ms linear 0ms infinite;}
		.hMbgTzek_46{stroke-dasharray:21 23;stroke-dashoffset:22;animation:hMbgTzek_draw_46 6200ms ease-in-out 0ms infinite,hMbgTzek_fade 6200ms linear 0ms infinite;}
		.hMbgTzek_47{stroke-dasharray:21 23;stroke-dashoffset:22;animation:hMbgTzek_draw_47 6200ms ease-in-out 0ms infinite,hMbgTzek_fade 6200ms linear 0ms infinite;}
		.hMbgTzek_48{stroke-dasharray:600 602;stroke-dashoffset:601;animation:hMbgTzek_draw_48 6200ms ease-in-out 0ms infinite,hMbgTzek_fade 6200ms linear 0ms infinite;}
		.hMbgTzek_49{stroke-dasharray:251 253;stroke-dashoffset:252;animation:hMbgTzek_draw_49 6200ms ease-in-out 0ms infinite,hMbgTzek_fade 6200ms linear 0ms infinite;}
		.hMbgTzek_50{stroke-dasharray:56 58;stroke-dashoffset:57;animation:hMbgTzek_draw_50 6200ms ease-in-out 0ms infinite,hMbgTzek_fade 6200ms linear 0ms infinite;}
		.hMbgTzek_51{stroke-dasharray:11 13;stroke-dashoffset:12;animation:hMbgTzek_draw_51 6200ms ease-in-out 0ms infinite,hMbgTzek_fade 6200ms linear 0ms infinite;}
		.hMbgTzek_52{stroke-dasharray:11 13;stroke-dashoffset:12;animation:hMbgTzek_draw_52 6200ms ease-in-out 0ms infinite,hMbgTzek_fade 6200ms linear 0ms infinite;}
		.hMbgTzek_53{stroke-dasharray:19 21;stroke-dashoffset:20;animation:hMbgTzek_draw_53 6200ms ease-in-out 0ms infinite,hMbgTzek_fade 6200ms linear 0ms infinite;}
		.hMbgTzek_54{stroke-dasharray:19 21;stroke-dashoffset:20;animation:hMbgTzek_draw_54 6200ms ease-in-out 0ms infinite,hMbgTzek_fade 6200ms linear 0ms infinite;}
		.hMbgTzek_55{stroke-dasharray:749 751;stroke-dashoffset:750;animation:hMbgTzek_draw_55 6200ms ease-in-out 0ms infinite,hMbgTzek_fade 6200ms linear 0ms infinite;}
		.hMbgTzek_56{stroke-dasharray:312 314;stroke-dashoffset:313;animation:hMbgTzek_draw_56 6200ms ease-in-out 0ms infinite,hMbgTzek_fade 6200ms linear 0ms infinite;}
		.hMbgTzek_57{stroke-dasharray:77 79;stroke-dashoffset:78;animation:hMbgTzek_draw_57 6200ms ease-in-out 0ms infinite,hMbgTzek_fade 6200ms linear 0ms infinite;}
		.hMbgTzek_58{stroke-dasharray:35 37;stroke-dashoffset:36;animation:hMbgTzek_draw_58 6200ms ease-in-out 0ms infinite,hMbgTzek_fade 6200ms linear 0ms infinite;}
		.hMbgTzek_59{stroke-dasharray:35 37;stroke-dashoffset:36;animation:hMbgTzek_draw_59 6200ms ease-in-out 0ms infinite,hMbgTzek_fade 6200ms linear 0ms infinite;}
		.hMbgTzek_60{stroke-dasharray:552 554;stroke-dashoffset:553;animation:hMbgTzek_draw_60 6200ms ease-in-out 0ms infinite,hMbgTzek_fade 6200ms linear 0ms infinite;}
		.hMbgTzek_61{stroke-dasharray:308 310;stroke-dashoffset:309;animation:hMbgTzek_draw_61 6200ms ease-in-out 0ms infinite,hMbgTzek_fade 6200ms linear 0ms infinite;}
		.hMbgTzek_62{stroke-dasharray:118 120;stroke-dashoffset:119;animation:hMbgTzek_draw_62 6200ms ease-in-out 0ms infinite,hMbgTzek_fade 6200ms linear 0ms infinite;}
		.hMbgTzek_63{stroke-dasharray:22 24;stroke-dashoffset:23;animation:hMbgTzek_draw_63 6200ms ease-in-out 0ms infinite,hMbgTzek_fade 6200ms linear 0ms infinite;}
		.hMbgTzek_64{stroke-dasharray:22 24;stroke-dashoffset:23;animation:hMbgTzek_draw_64 6200ms ease-in-out 0ms infinite,hMbgTzek_fade 6200ms linear 0ms infinite;}
		.hMbgTzek_65{stroke-dasharray:594 596;stroke-dashoffset:595;animation:hMbgTzek_draw_65 6200ms ease-in-out 0ms infinite,hMbgTzek_fade 6200ms linear 0ms infinite;}
		.hMbgTzek_66{stroke-dasharray:253 255;stroke-dashoffset:254;animation:hMbgTzek_draw_66 6200ms ease-in-out 0ms infinite,hMbgTzek_fade 6200ms linear 0ms infinite;}
		.hMbgTzek_67{stroke-dasharray:82 84;stroke-dashoffset:83;animation:hMbgTzek_draw_67 6200ms ease-in-out 0ms infinite,hMbgTzek_fade 6200ms linear 0ms infinite;}
		.hMbgTzek_68{stroke-dasharray:14 16;stroke-dashoffset:15;animation:hMbgTzek_draw_68 6200ms ease-in-out 0ms infinite,hMbgTzek_fade 6200ms linear 0ms infinite;}
		.hMbgTzek_69{stroke-dasharray:14 16;stroke-dashoffset:15;animation:hMbgTzek_draw_69 6200ms ease-in-out 0ms infinite,hMbgTzek_fade 6200ms linear 0ms infinite;}
		.hMbgTzek_70{stroke-dasharray:19 21;stroke-dashoffset:20;animation:hMbgTzek_draw_70 6200ms ease-in-out 0ms infinite,hMbgTzek_fade 6200ms linear 0ms infinite;}
		.hMbgTzek_71{stroke-dasharray:19 21;stroke-dashoffset:20;animation:hMbgTzek_draw_71 6200ms ease-in-out 0ms infinite,hMbgTzek_fade 6200ms linear 0ms infinite;}
		.hMbgTzek_72{stroke-dasharray:488 490;stroke-dashoffset:489;animation:hMbgTzek_draw_72 6200ms ease-in-out 0ms infinite,hMbgTzek_fade 6200ms linear 0ms infinite;}
		.hMbgTzek_73{stroke-dasharray:243 245;stroke-dashoffset:244;animation:hMbgTzek_draw_73 6200ms ease-in-out 0ms infinite,hMbgTzek_fade 6200ms linear 0ms infinite;}
		.hMbgTzek_74{stroke-dasharray:128 130;stroke-dashoffset:129;animation:hMbgTzek_draw_74 6200ms ease-in-out 0ms infinite,hMbgTzek_fade 6200ms linear 0ms infinite;}
		.hMbgTzek_75{stroke-dasharray:20 22;stroke-dashoffset:21;animation:hMbgTzek_draw_75 6200ms ease-in-out 0ms infinite,hMbgTzek_fade 6200ms linear 0ms infinite;}
		.hMbgTzek_76{stroke-dasharray:20 22;stroke-dashoffset:21;animation:hMbgTzek_draw_76 6200ms ease-in-out 0ms infinite,hMbgTzek_fade 6200ms linear 0ms infinite;}
		.hMbgTzek_77{stroke-dasharray:559 561;stroke-dashoffset:560;animation:hMbgTzek_draw_77 6200ms ease-in-out 0ms infinite,hMbgTzek_fade 6200ms linear 0ms infinite;}
		.hMbgTzek_78{stroke-dasharray:309 311;stroke-dashoffset:310;animation:hMbgTzek_draw_78 6200ms ease-in-out 0ms infinite,hMbgTzek_fade 6200ms linear 0ms infinite;}
		.hMbgTzek_79{stroke-dasharray:98 100;stroke-dashoffset:99;animation:hMbgTzek_draw_79 6200ms ease-in-out 0ms infinite,hMbgTzek_fade 6200ms linear 0ms infinite;}
		.hMbgTzek_80{stroke-dasharray:17 19;stroke-dashoffset:18;animation:hMbgTzek_draw_80 6200ms ease-in-out 0ms infinite,hMbgTzek_fade 6200ms linear 0ms infinite;}
		.hMbgTzek_81{stroke-dasharray:17 19;stroke-dashoffset:18;animation:hMbgTzek_draw_81 6200ms ease-in-out 0ms infinite,hMbgTzek_fade 6200ms linear 0ms infinite;}
		.hMbgTzek_82{stroke-dasharray:713 715;stroke-dashoffset:714;animation:hMbgTzek_draw_82 6200ms ease-in-out 0ms infinite,hMbgTzek_fade 6200ms linear 0ms infinite;}
		.hMbgTzek_83{stroke-dasharray:1823 1825;stroke-dashoffset:1824;animation:hMbgTzek_draw_83 6200ms ease-in-out 0ms infinite,hMbgTzek_fade 6200ms linear 0ms infinite;}
		@keyframes hMbgTzek_draw{100%{stroke-dashoffset:0;}}@keyframes hMbgTzek_fade{0%{stroke-opacity:1;}93.54838709677419%{stroke-opacity:1;}100%{stroke-opacity:0;}}
		@keyframes hMbgTzek_draw_0{12.903225806451612%{stroke-dashoffset: 1887}34.40860215053764%{ stroke-dashoffset: 0;}100%{ stroke-dashoffset: 0;}}
		@keyframes hMbgTzek_draw_1{13.032776266355745%{stroke-dashoffset: 322}34.53815261044177%{ stroke-dashoffset: 0;}100%{ stroke-dashoffset: 0;}}
		@keyframes hMbgTzek_draw_2{13.162326726259879%{stroke-dashoffset: 283}34.6677030703459%{ stroke-dashoffset: 0;}100%{ stroke-dashoffset: 0;}}
		@keyframes hMbgTzek_draw_3{13.291877186164012%{stroke-dashoffset: 128}34.79725353025003%{ stroke-dashoffset: 0;}100%{ stroke-dashoffset: 0;}}
		@keyframes hMbgTzek_draw_4{13.421427646068146%{stroke-dashoffset: 51}34.92680399015417%{ stroke-dashoffset: 0;}100%{ stroke-dashoffset: 0;}}
		@keyframes hMbgTzek_draw_5{13.550978105972275%{stroke-dashoffset: 242}35.0563544500583%{ stroke-dashoffset: 0;}100%{ stroke-dashoffset: 0;}}
		@keyframes hMbgTzek_draw_6{13.68052856587641%{stroke-dashoffset: 161}35.18590490996243%{ stroke-dashoffset: 0;}100%{ stroke-dashoffset: 0;}}
		@keyframes hMbgTzek_draw_7{13.810079025780542%{stroke-dashoffset: 51}35.31545536986657%{ stroke-dashoffset: 0;}100%{ stroke-dashoffset: 0;}}
		@keyframes hMbgTzek_draw_8{13.939629485684673%{stroke-dashoffset: 242}35.4450058297707%{ stroke-dashoffset: 0;}100%{ stroke-dashoffset: 0;}}
		@keyframes hMbgTzek_draw_9{14.06917994558881%{stroke-dashoffset: 287}35.57455628967483%{ stroke-dashoffset: 0;}100%{ stroke-dashoffset: 0;}}
		@keyframes hMbgTzek_draw_10{14.19873040549294%{stroke-dashoffset: 242}35.70410674957897%{ stroke-dashoffset: 0;}100%{ stroke-dashoffset: 0;}}
		@keyframes hMbgTzek_draw_11{14.328280865397073%{stroke-dashoffset: 60}35.8336572094831%{ stroke-dashoffset: 0;}100%{ stroke-dashoffset: 0;}}
		@keyframes hMbgTzek_draw_12{14.457831325301203%{stroke-dashoffset: 221}35.963207669387224%{ stroke-dashoffset: 0;}100%{ stroke-dashoffset: 0;}}
		@keyframes hMbgTzek_draw_13{14.587381785205336%{stroke-dashoffset: 233}36.092758129291354%{ stroke-dashoffset: 0;}100%{ stroke-dashoffset: 0;}}
		@keyframes hMbgTzek_draw_14{14.71693224510947%{stroke-dashoffset: 259}36.22230858919549%{ stroke-dashoffset: 0;}100%{ stroke-dashoffset: 0;}}
		@keyframes hMbgTzek_draw_15{14.846482705013603%{stroke-dashoffset: 112}36.35185904909962%{ stroke-dashoffset: 0;}100%{ stroke-dashoffset: 0;}}
		@keyframes hMbgTzek_draw_16{14.976033164917734%{stroke-dashoffset: 22}36.481409509003754%{ stroke-dashoffset: 0;}100%{ stroke-dashoffset: 0;}}
		@keyframes hMbgTzek_draw_17{15.10558362482187%{stroke-dashoffset: 22}36.61095996890789%{ stroke-dashoffset: 0;}100%{ stroke-dashoffset: 0;}}
		@keyframes hMbgTzek_draw_18{15.235134084726%{stroke-dashoffset: 585}36.74051042881202%{ stroke-dashoffset: 0;}100%{ stroke-dashoffset: 0;}}
		@keyframes hMbgTzek_draw_19{15.364684544630133%{stroke-dashoffset: 302}36.870060888716154%{ stroke-dashoffset: 0;}100%{ stroke-dashoffset: 0;}}
		@keyframes hMbgTzek_draw_20{15.494235004534268%{stroke-dashoffset: 89}36.999611348620284%{ stroke-dashoffset: 0;}100%{ stroke-dashoffset: 0;}}
		@keyframes hMbgTzek_draw_21{15.6237854644384%{stroke-dashoffset: 20}37.12916180852442%{ stroke-dashoffset: 0;}100%{ stroke-dashoffset: 0;}}
		@keyframes hMbgTzek_draw_22{15.753335924342531%{stroke-dashoffset: 20}37.25871226842855%{ stroke-dashoffset: 0;}100%{ stroke-dashoffset: 0;}}
		@keyframes hMbgTzek_draw_23{15.882886384246664%{stroke-dashoffset: 660}37.38826272833269%{ stroke-dashoffset: 0;}100%{ stroke-dashoffset: 0;}}
		@keyframes hMbgTzek_draw_24{16.012436844150795%{stroke-dashoffset: 245}37.51781318823682%{ stroke-dashoffset: 0;}100%{ stroke-dashoffset: 0;}}
		@keyframes hMbgTzek_draw_25{16.14198730405493%{stroke-dashoffset: 18}37.64736364814095%{ stroke-dashoffset: 0;}100%{ stroke-dashoffset: 0;}}
		@keyframes hMbgTzek_draw_26{16.271537763959063%{stroke-dashoffset: 19}37.776914108045084%{ stroke-dashoffset: 0;}100%{ stroke-dashoffset: 0;}}
		@keyframes hMbgTzek_draw_27{16.401088223863194%{stroke-dashoffset: 145}37.906464567949214%{ stroke-dashoffset: 0;}100%{ stroke-dashoffset: 0;}}
		@keyframes hMbgTzek_draw_28{16.530638683767325%{stroke-dashoffset: 24}38.036015027853345%{ stroke-dashoffset: 0;}100%{ stroke-dashoffset: 0;}}
		@keyframes hMbgTzek_draw_29{16.66018914367146%{stroke-dashoffset: 24}38.16556548775748%{ stroke-dashoffset: 0;}100%{ stroke-dashoffset: 0;}}
		@keyframes hMbgTzek_draw_30{16.789739603575594%{stroke-dashoffset: 513}38.295115947661614%{ stroke-dashoffset: 0;}100%{ stroke-dashoffset: 0;}}
		@keyframes hMbgTzek_draw_31{16.919290063479725%{stroke-dashoffset: 258}38.42466640756575%{ stroke-dashoffset: 0;}100%{ stroke-dashoffset: 0;}}
		@keyframes hMbgTzek_draw_32{17.048840523383856%{stroke-dashoffset: 85}38.55421686746988%{ stroke-dashoffset: 0;}100%{ stroke-dashoffset: 0;}}
		@keyframes hMbgTzek_draw_33{17.17839098328799%{stroke-dashoffset: 57}38.683767327374014%{ stroke-dashoffset: 0;}100%{ stroke-dashoffset: 0;}}
		@keyframes hMbgTzek_draw_34{17.307941443192124%{stroke-dashoffset: 57}38.813317787278145%{ stroke-dashoffset: 0;}100%{ stroke-dashoffset: 0;}}
		@keyframes hMbgTzek_draw_35{17.437491903096255%{stroke-dashoffset: 442}38.94286824718228%{ stroke-dashoffset: 0;}100%{ stroke-dashoffset: 0;}}
		@keyframes hMbgTzek_draw_36{17.56704236300039%{stroke-dashoffset: 251}39.07241870708641%{ stroke-dashoffset: 0;}100%{ stroke-dashoffset: 0;}}
		@keyframes hMbgTzek_draw_37{17.69659282290452%{stroke-dashoffset: 66}39.201969166990544%{ stroke-dashoffset: 0;}100%{ stroke-dashoffset: 0;}}
		@keyframes hMbgTzek_draw_38{17.82614328280866%{stroke-dashoffset: 121}39.33151962689468%{ stroke-dashoffset: 0;}100%{ stroke-dashoffset: 0;}}
		@keyframes hMbgTzek_draw_39{17.95569374271279%{stroke-dashoffset: 11}39.46107008679881%{ stroke-dashoffset: 0;}100%{ stroke-dashoffset: 0;}}
		@keyframes hMbgTzek_draw_40{18.08524420261692%{stroke-dashoffset: 11}39.590620546702944%{ stroke-dashoffset: 0;}100%{ stroke-dashoffset: 0;}}
		@keyframes hMbgTzek_draw_41{18.214794662521054%{stroke-dashoffset: 19}39.72017100660708%{ stroke-dashoffset: 0;}100%{ stroke-dashoffset: 0;}}
		@keyframes hMbgTzek_draw_42{18.34434512242519%{stroke-dashoffset: 19}39.84972146651121%{ stroke-dashoffset: 0;}100%{ stroke-dashoffset: 0;}}
		@keyframes hMbgTzek_draw_43{18.473895582329316%{stroke-dashoffset: 476}39.97927192641534%{ stroke-dashoffset: 0;}100%{ stroke-dashoffset: 0;}}
		@keyframes hMbgTzek_draw_44{18.603446042233447%{stroke-dashoffset: 275}40.108822386319474%{ stroke-dashoffset: 0;}100%{ stroke-dashoffset: 0;}}
		@keyframes hMbgTzek_draw_45{18.732996502137585%{stroke-dashoffset: 131}40.238372846223605%{ stroke-dashoffset: 0;}100%{ stroke-dashoffset: 0;}}
		@keyframes hMbgTzek_draw_46{18.862546962041716%{stroke-dashoffset: 22}40.36792330612774%{ stroke-dashoffset: 0;}100%{ stroke-dashoffset: 0;}}
		@keyframes hMbgTzek_draw_47{18.992097421945846%{stroke-dashoffset: 22}40.497473766031874%{ stroke-dashoffset: 0;}100%{ stroke-dashoffset: 0;}}
		@keyframes hMbgTzek_draw_48{19.12164788184998%{stroke-dashoffset: 601}40.62702422593601%{ stroke-dashoffset: 0;}100%{ stroke-dashoffset: 0;}}
		@keyframes hMbgTzek_draw_49{19.251198341754115%{stroke-dashoffset: 252}40.75657468584014%{ stroke-dashoffset: 0;}100%{ stroke-dashoffset: 0;}}
		@keyframes hMbgTzek_draw_50{19.380748801658246%{stroke-dashoffset: 57}40.88612514574427%{ stroke-dashoffset: 0;}100%{ stroke-dashoffset: 0;}}
		@keyframes hMbgTzek_draw_51{19.51029926156238%{stroke-dashoffset: 12}41.015675605648404%{ stroke-dashoffset: 0;}100%{ stroke-dashoffset: 0;}}
		@keyframes hMbgTzek_draw_52{19.63984972146651%{stroke-dashoffset: 12}41.14522606555254%{ stroke-dashoffset: 0;}100%{ stroke-dashoffset: 0;}}
		@keyframes hMbgTzek_draw_53{19.769400181370646%{stroke-dashoffset: 20}41.27477652545667%{ stroke-dashoffset: 0;}100%{ stroke-dashoffset: 0;}}
		@keyframes hMbgTzek_draw_54{19.898950641274773%{stroke-dashoffset: 20}41.404326985360804%{ stroke-dashoffset: 0;}100%{ stroke-dashoffset: 0;}}
		@keyframes hMbgTzek_draw_55{20.028501101178907%{stroke-dashoffset: 750}41.533877445264935%{ stroke-dashoffset: 0;}100%{ stroke-dashoffset: 0;}}
		@keyframes hMbgTzek_draw_56{20.15805156108304%{stroke-dashoffset: 313}41.663427905169065%{ stroke-dashoffset: 0;}100%{ stroke-dashoffset: 0;}}
		@keyframes hMbgTzek_draw_57{20.287602020987173%{stroke-dashoffset: 78}41.792978365073196%{ stroke-dashoffset: 0;}100%{ stroke-dashoffset: 0;}}
		@keyframes hMbgTzek_draw_58{20.417152480891307%{stroke-dashoffset: 36}41.92252882497733%{ stroke-dashoffset: 0;}100%{ stroke-dashoffset: 0;}}
		@keyframes hMbgTzek_draw_59{20.546702940795438%{stroke-dashoffset: 36}42.05207928488146%{ stroke-dashoffset: 0;}100%{ stroke-dashoffset: 0;}}
		@keyframes hMbgTzek_draw_60{20.676253400699572%{stroke-dashoffset: 553}42.181629744785596%{ stroke-dashoffset: 0;}100%{ stroke-dashoffset: 0;}}
		@keyframes hMbgTzek_draw_61{20.805803860603707%{stroke-dashoffset: 309}42.31118020468973%{ stroke-dashoffset: 0;}100%{ stroke-dashoffset: 0;}}
		@keyframes hMbgTzek_draw_62{20.935354320507837%{stroke-dashoffset: 119}42.440730664593865%{ stroke-dashoffset: 0;}100%{ stroke-dashoffset: 0;}}
		@keyframes hMbgTzek_draw_63{21.06490478041197%{stroke-dashoffset: 23}42.570281124497996%{ stroke-dashoffset: 0;}100%{ stroke-dashoffset: 0;}}
		@keyframes hMbgTzek_draw_64{21.194455240316103%{stroke-dashoffset: 23}42.699831584402126%{ stroke-dashoffset: 0;}100%{ stroke-dashoffset: 0;}}
		@keyframes hMbgTzek_draw_65{21.324005700220237%{stroke-dashoffset: 595}42.82938204430626%{ stroke-dashoffset: 0;}100%{ stroke-dashoffset: 0;}}
		@keyframes hMbgTzek_draw_66{21.453556160124368%{stroke-dashoffset: 254}42.958932504210395%{ stroke-dashoffset: 0;}100%{ stroke-dashoffset: 0;}}
		@keyframes hMbgTzek_draw_67{21.583106620028502%{stroke-dashoffset: 83}43.088482964114526%{ stroke-dashoffset: 0;}100%{ stroke-dashoffset: 0;}}
		@keyframes hMbgTzek_draw_68{21.712657079932633%{stroke-dashoffset: 15}43.21803342401866%{ stroke-dashoffset: 0;}100%{ stroke-dashoffset: 0;}}
		@keyframes hMbgTzek_draw_69{21.84220753983677%{stroke-dashoffset: 15}43.347583883922795%{ stroke-dashoffset: 0;}100%{ stroke-dashoffset: 0;}}
		@keyframes hMbgTzek_draw_70{21.971757999740902%{stroke-dashoffset: 20}43.477134343826926%{ stroke-dashoffset: 0;}100%{ stroke-dashoffset: 0;}}
		@keyframes hMbgTzek_draw_71{22.101308459645033%{stroke-dashoffset: 20}43.606684803731056%{ stroke-dashoffset: 0;}100%{ stroke-dashoffset: 0;}}
		@keyframes hMbgTzek_draw_72{22.230858919549167%{stroke-dashoffset: 489}43.736235263635194%{ stroke-dashoffset: 0;}100%{ stroke-dashoffset: 0;}}
		@keyframes hMbgTzek_draw_73{22.3604093794533%{stroke-dashoffset: 244}43.865785723539325%{ stroke-dashoffset: 0;}100%{ stroke-dashoffset: 0;}}
		@keyframes hMbgTzek_draw_74{22.489959839357432%{stroke-dashoffset: 129}43.995336183443456%{ stroke-dashoffset: 0;}100%{ stroke-dashoffset: 0;}}
		@keyframes hMbgTzek_draw_75{22.619510299261567%{stroke-dashoffset: 21}44.12488664334759%{ stroke-dashoffset: 0;}100%{ stroke-dashoffset: 0;}}
		@keyframes hMbgTzek_draw_76{22.749060759165694%{stroke-dashoffset: 21}44.25443710325172%{ stroke-dashoffset: 0;}100%{ stroke-dashoffset: 0;}}
		@keyframes hMbgTzek_draw_77{22.87861121906983%{stroke-dashoffset: 560}44.38398756315585%{ stroke-dashoffset: 0;}100%{ stroke-dashoffset: 0;}}
		@keyframes hMbgTzek_draw_78{23.00816167897396%{stroke-dashoffset: 310}44.51353802305998%{ stroke-dashoffset: 0;}100%{ stroke-dashoffset: 0;}}
		@keyframes hMbgTzek_draw_79{23.137712138878094%{stroke-dashoffset: 99}44.64308848296412%{ stroke-dashoffset: 0;}100%{ stroke-dashoffset: 0;}}
		@keyframes hMbgTzek_draw_80{23.267262598782228%{stroke-dashoffset: 18}44.77263894286825%{ stroke-dashoffset: 0;}100%{ stroke-dashoffset: 0;}}
		@keyframes hMbgTzek_draw_81{23.39681305868636%{stroke-dashoffset: 18}44.90218940277238%{ stroke-dashoffset: 0;}100%{ stroke-dashoffset: 0;}}
		@keyframes hMbgTzek_draw_82{23.526363518590493%{stroke-dashoffset: 714}45.03173986267651%{ stroke-dashoffset: 0;}100%{ stroke-dashoffset: 0;}}
		@keyframes hMbgTzek_draw_83{23.655913978494624%{stroke-dashoffset: 1824}45.16129032258064%{ stroke-dashoffset: 0;}100%{ stroke-dashoffset: 0;}}
	</style>
</svg>
