<svg xmlns="http://www.w3.org/2000/svg" viewBox="0 0 40.015 38">
  <defs>
    <style>
      .cls-1 {
        fill: #c7c7c7;
      }

      .cls-1, .cls-2, .cls-3, .cls-4, .cls-6 {
        fill-rule: evenodd;
      }

      .cls-2 {
        fill: #1976d2;
      }

      .cls-3 {
        fill: #1e88e5;
      }

      .cls-4, .cls-5 {
        fill: #fafafa;
      }

      .cls-6 {
        fill: #e0e0e0;
      }
    </style>
  </defs>
  <g id="icons8-google-カレンダー" transform="translate(-3.99 -5)">
    <path id="パス_27" data-name="パス 27" class="cls-1" d="M38,5H10A2,2,0,0,0,8,7v3H40V7A2,2,0,0,0,38,5ZM14,8a1,1,0,1,1,1-1A1,1,0,0,1,14,8ZM34,8a1,1,0,1,1,1-1A1,1,0,0,1,34,8Z"/>
    <path id="パス_28" data-name="パス 28" class="cls-2" d="M44,11c.1-.582-1.409-2-2-2H6a2.444,2.444,0,0,0-2,2c.823,4.664,3,15,3,15H41S43.177,15.664,44,11Z"/>
    <path id="パス_29" data-name="パス 29" class="cls-3" d="M41,26H7S4.823,36.336,4,41a1.914,1.914,0,0,0,2,2H42a2.043,2.043,0,0,0,2-2C43.177,36.336,41,26,41,26Z"/>
    <path id="パス_30" data-name="パス 30" class="cls-4" d="M20.534,26a3.657,3.657,0,0,1,2.1,1.557,5.145,5.145,0,0,1-.906,6.19,5.826,5.826,0,0,1-3.977,1.36,5.976,5.976,0,0,1-3.93-1.282,4.112,4.112,0,0,1-1.5-3.476l.036-.072h2.242a2.888,2.888,0,0,0,.841,2.182,3.183,3.183,0,0,0,2.308.811,3.236,3.236,0,0,0,2.337-.811,3.172,3.172,0,0,0,.847-2.4,3.269,3.269,0,0,0-.751-2.373,3.211,3.211,0,0,0-2.373-.763H15.765V26Z"/>
    <rect id="長方形_50" data-name="長方形 50" class="cls-5" width="2.349" height="8.856" transform="translate(31.637 26)"/>
    <path id="パス_31" data-name="パス 31" class="cls-6" d="M14.727,22.036H12.473l-.024-.072a4.2,4.2,0,0,1,1.425-3.345,5.482,5.482,0,0,1,3.882-1.377,5.539,5.539,0,0,1,3.84,1.282,4.653,4.653,0,0,1,1.431,3.655,4.175,4.175,0,0,1-2.6,3.769l.107.052h-4.77v-.911h2.051a2.734,2.734,0,0,0,2.212-.781,3.308,3.308,0,0,0,.65-2.176,3.161,3.161,0,0,0-.739-2.266,2.876,2.876,0,0,0-2.182-.775,3.021,3.021,0,0,0-2.2.805A2.885,2.885,0,0,0,14.727,22.036Z"/>
    <path id="パス_32" data-name="パス 32" class="cls-6" d="M33.986,26H31.637V19.782l-3.554.048V18.136l5.9-.644Z"/>
    <path id="パス_33" data-name="パス 33" class="cls-2" d="M6,9a2.017,2.017,0,0,0-2,2c.823,4.664,3,15,3,15"/>
    <path id="パス_34" data-name="パス 34" class="cls-2" d="M41,26s2.177-10.336,3-15a1.951,1.951,0,0,0-2-2"/>
  </g>
</svg>
